ISO-10303-21;
HEADER;
FILE_DESCRIPTION(('ViewDefinition [ReferenceView_V1.2]; golden example, building model'),'2;1');
FILE_NAME('golden-building.ifc','2026-10-09T13:19:38+00:00',(''),('bbl-dres/reconstruction'),'IfcOpenShell 0.8.5','IfcOpenShell 0.8.5','Nobody');
FILE_SCHEMA(('IFC4'));
ENDSEC;
DATA;
#1=IFCPROJECT('2X$uChyRvUk8FznK14sXpa',$,'Golden pavilion - building',$,$,$,$,(#11),#6);
#2=IFCSIUNIT(*,.LENGTHUNIT.,$,.METRE.);
#3=IFCSIUNIT(*,.AREAUNIT.,$,.SQUARE_METRE.);
#4=IFCSIUNIT(*,.VOLUMEUNIT.,$,.CUBIC_METRE.);
#5=IFCSIUNIT(*,.PLANEANGLEUNIT.,$,.RADIAN.);
#6=IFCUNITASSIGNMENT((#2,#3,#4,#5));
#7=IFCCARTESIANPOINT((0.,0.,0.));
#8=IFCDIRECTION((0.,0.,1.));
#9=IFCDIRECTION((1.,0.,0.));
#10=IFCAXIS2PLACEMENT3D(#7,#8,#9);
#11=IFCGEOMETRICREPRESENTATIONCONTEXT($,'Model',3,1.0000000000000001E-05,#10,$);
#12=IFCGEOMETRICREPRESENTATIONSUBCONTEXT('Body','Model',*,*,*,*,#11,$,.MODEL_VIEW.,$);
#13=IFCPROJECTEDCRS('EPSG:2056','CH1903+ / LV95 (example values, not a real site)',$,$,$,$,$);
#14=IFCMAPCONVERSION(#11,#13,2600000.,1200000.,540.,1.,0.,1.);
#15=IFCSITE('3n99RgJgvM2u2PeqyO31UR',$,'Golden pavilion parcel',$,$,#21,$,'Parcel 1234 (example)',$,$,$,$,$,$);
#16=IFCRELAGGREGATES('1wfLHMAWHJign41SIET0rN',$,$,$,#1,(#15));
#17=IFCCARTESIANPOINT((0.,0.,0.));
#18=IFCDIRECTION((0.,0.,1.));
#19=IFCDIRECTION((1.,0.,0.));
#20=IFCAXIS2PLACEMENT3D(#17,#18,#19);
#21=IFCLOCALPLACEMENT($,#20);
#22=IFCBUILDING('0Xu1_u20vIIQyMnfILbvok',$,'Golden pavilion',$,$,#28,$,$,$,$,$,$);
#23=IFCRELAGGREGATES('3UyRPVtavVSxU_FYjYlEQG',$,$,$,#15,(#22));
#24=IFCCARTESIANPOINT((0.,0.,0.));
#25=IFCDIRECTION((0.,0.,1.));
#26=IFCDIRECTION((1.,0.,0.));
#27=IFCAXIS2PLACEMENT3D(#24,#25,#26);
#28=IFCLOCALPLACEMENT(#21,#27);
#29=IFCBUILDINGSTOREY('1DDIzPmhvVbvCoc5zj1k3n',$,'EG',$,$,#46,$,'Erdgeschoss',$,0.);
#35=IFCBUILDINGSTOREY('2vHs9z6cTG9P$7Wuy9JW_T',$,'OG1',$,$,#51,$,'1. Obergeschoss',$,3.2000000000000002);
#41=IFCRELAGGREGATES('0ssCD5kM9TKufjltWvSON3',$,$,$,#22,(#29,#35));
#42=IFCCARTESIANPOINT((0.,0.,0.));
#43=IFCDIRECTION((0.,0.,1.));
#44=IFCDIRECTION((1.,0.,0.));
#45=IFCAXIS2PLACEMENT3D(#42,#43,#44);
#46=IFCLOCALPLACEMENT(#28,#45);
#47=IFCCARTESIANPOINT((0.,0.,3.2000000000000002));
#48=IFCDIRECTION((0.,0.,1.));
#49=IFCDIRECTION((1.,0.,0.));
#50=IFCAXIS2PLACEMENT3D(#47,#48,#49);
#51=IFCLOCALPLACEMENT(#28,#50);
#52=IFCWALLTYPE('3_L6e8vIjGFBZKocwop0dh',$,'Exterior wall 40 cm, sandstone',$,$,$,$,$,$,.SOLIDWALL.);
#53=IFCMATERIAL('Sandstone',$,'stone');
#54=IFCRELASSOCIATESMATERIAL('2Nr31DUtnUDQ4FLS8809sA',$,$,$,(#52,#205,#239,#1207,#1238,#1268),#53);
#55=IFCWALLTYPE('2Xr$2EIIzP3u9FaU5aJIRA',$,'Interior wall 15 cm, plastered brick',$,$,$,$,$,$,.SOLIDWALL.);
#56=IFCMATERIAL('Brick, plastered',$,'brick');
#57=IFCRELASSOCIATESMATERIAL('0z0pIrgcXKIAclcAJsMtsU',$,$,$,(#55),#56);
#58=IFCSLABTYPE('1n1ckKMt5J7PJWr4VZS2JA',$,'Floor slab 25 cm',$,$,$,$,$,$,.FLOOR.);
#59=IFCMATERIAL('Reinforced concrete',$,'concrete');
#60=IFCRELASSOCIATESMATERIAL('2IrUAh5BjO4e3mUz3pWwln',$,$,$,(#58,#61,#62),#59);
#61=IFCSLABTYPE('1UUewPwVTR9QTW$1EuOOHF',$,'Flat roof slab 25 cm',$,$,$,$,$,$,.ROOF.);
#62=IFCROOFTYPE('1tlhTW6V5IAhNz3qFyeUmt',$,'Flat roof',$,$,$,$,$,$,.FLAT_ROOF.);
#63=IFCCARTESIANPOINTLIST2D(((0.,0.),(0.,2.1000000000000001),(1.,2.1000000000000001),(1.,0.),(0.97499999999999998,0.),(0.97499999999999998,2.0750000000000002),(0.025000000000000001,2.0750000000000002),(0.025000000000000001,0.)));
#64=IFCINDEXEDPOLYCURVE(#63,(IFCLINEINDEX((1,2,3,4,5,6,7,8,1))),$);
#65=IFCARBITRARYCLOSEDPROFILEDEF(.AREA.,$,#64);
#66=IFCCARTESIANPOINT((0.,0.025000000000000001,0.));
#67=IFCDIRECTION((0.,-1.,0.));
#68=IFCDIRECTION((1.,0.,0.));
#69=IFCAXIS2PLACEMENT3D(#66,#67,#68);
#70=IFCDIRECTION((0.,0.,-1.));
#71=IFCEXTRUDEDAREASOLID(#65,#69,#70,0.025000000000000001);
#72=IFCCARTESIANPOINTLIST2D(((0.,0.),(0.,2.1000000000000001),(1.,2.1000000000000001),(1.,0.),(0.94999999999999996,0.),(0.94999999999999996,2.0500000000000003),(0.050000000000000003,2.0500000000000003),(0.050000000000000003,0.)));
#73=IFCINDEXEDPOLYCURVE(#72,(IFCLINEINDEX((1,2,3,4,5,6,7,8,1))),$);
#74=IFCARBITRARYCLOSEDPROFILEDEF(.AREA.,$,#73);
#75=IFCCARTESIANPOINT((0.,0.,0.));
#76=IFCDIRECTION((0.,-1.,0.));
#77=IFCDIRECTION((1.,0.,0.));
#78=IFCAXIS2PLACEMENT3D(#75,#76,#77);
#79=IFCDIRECTION((0.,0.,-1.));
#80=IFCEXTRUDEDAREASOLID(#74,#78,#79,0.025000000000000001);
#81=IFCCARTESIANPOINTLIST2D(((0.,0.),(0.90000000000000002,0.),(0.90000000000000002,0.10000000000000001),(0.,0.10000000000000001)));
#82=IFCINDEXEDPOLYCURVE(#81,(IFCLINEINDEX((1,2,3,4,1))),$);
#83=IFCARBITRARYCLOSEDPROFILEDEF(.AREA.,$,#82);
#84=IFCCARTESIANPOINT((0.050000000000000003,0.,0.));
#85=IFCDIRECTION((0.,0.,1.));
#86=IFCDIRECTION((1.,0.,0.));
#87=IFCAXIS2PLACEMENT3D(#84,#85,#86);
#88=IFCDIRECTION((0.,0.,1.));
#89=IFCEXTRUDEDAREASOLID(#83,#87,#88,0.025000000000000001);
#90=IFCCARTESIANPOINTLIST2D(((0.,0.),(0.,2.125),(1.05,2.125),(1.05,0.),(0.97500000000000009,0.),(0.97500000000000009,2.0499999999999998),(0.074999999999999997,2.0499999999999998),(0.074999999999999997,0.)));
#91=IFCINDEXEDPOLYCURVE(#90,(IFCLINEINDEX((1,2,3,4,5,6,7,8,1))),$);
#92=IFCARBITRARYCLOSEDPROFILEDEF(.AREA.,$,#91);
#93=IFCCARTESIANPOINT((-0.024999999999999994,-0.0050000000000000001,0.));
#94=IFCDIRECTION((0.,-1.,0.));
#95=IFCDIRECTION((1.,0.,0.));
#96=IFCAXIS2PLACEMENT3D(#93,#94,#95);
#97=IFCDIRECTION((0.,0.,-1.));
#98=IFCEXTRUDEDAREASOLID(#92,#96,#97,0.0050000000000000001);
#99=IFCCARTESIANPOINTLIST2D(((0.,0.),(0.,2.125),(1.05,2.125),(1.05,0.),(1.,0.),(1.,2.0750000000000002),(0.049999999999999996,2.0750000000000002),(0.049999999999999996,0.)));
#100=IFCINDEXEDPOLYCURVE(#99,(IFCLINEINDEX((1,2,3,4,5,6,7,8,1))),$);
#101=IFCARBITRARYCLOSEDPROFILEDEF(.AREA.,$,#100);
#102=IFCCARTESIANPOINT((-0.024999999999999994,0.050000000000000003,0.));
#103=IFCDIRECTION((0.,-1.,0.));
#104=IFCDIRECTION((1.,0.,0.));
#105=IFCAXIS2PLACEMENT3D(#102,#103,#104);
#106=IFCDIRECTION((0.,0.,-1.));
#107=IFCEXTRUDEDAREASOLID(#101,#105,#106,0.0050000000000000001);
#108=IFCCARTESIANPOINTLIST2D(((0.,0.),(0.94999999999999996,0.),(0.94999999999999996,0.035000000000000003),(0.,0.035000000000000003)));
#109=IFCINDEXEDPOLYCURVE(#108,(IFCLINEINDEX((1,2,3,4,1))),$);
#110=IFCARBITRARYCLOSEDPROFILEDEF(.AREA.,$,#109);
#111=IFCCARTESIANPOINT((0.025000000000000001,0.025000000000000001,0.025000000000000001));
#112=IFCDIRECTION((0.,0.,1.));
#113=IFCDIRECTION((1.,0.,0.));
#114=IFCAXIS2PLACEMENT3D(#111,#112,#113);
#115=IFCDIRECTION((0.,0.,1.));
#116=IFCEXTRUDEDAREASOLID(#110,#114,#115,2.0500000000000003);
#117=IFCCARTESIANPOINTLIST2D(((0.,0.),(0.,-0.040000000000000001),(-0.12000000000000011,-0.040000000000000001),(-0.12000000000000011,-0.02),(-0.020000000000000018,-0.02),(-0.020000000000000018,0.)));
#118=IFCINDEXEDPOLYCURVE(#117,(IFCLINEINDEX((1,2,3,4,5,6,1))),$);
#119=IFCARBITRARYCLOSEDPROFILEDEF(.AREA.,$,#118);
#120=IFCCARTESIANPOINT((0.92500000000000004,0.025000000000000001,1.0149999999999999));
#121=IFCDIRECTION((0.,0.,1.));
#122=IFCDIRECTION((1.,0.,0.));
#123=IFCAXIS2PLACEMENT3D(#120,#121,#122);
#124=IFCDIRECTION((0.,0.,1.));
#125=IFCEXTRUDEDAREASOLID(#119,#123,#124,0.02);
#126=IFCEXTRUDEDAREASOLID(#127,#130,#134,0.02);
#127=IFCARBITRARYCLOSEDPROFILEDEF(.AREA.,$,#128);
#128=IFCINDEXEDPOLYCURVE(#129,(IFCLINEINDEX((1,2,3,4,5,6,1))),$);
#129=IFCCARTESIANPOINTLIST2D(((0.,0.),(0.,0.040000000000000001),(-0.12000000000000011,0.040000000000000001),(-0.12000000000000011,0.020000000000000011),(-0.020000000000000018,0.020000000000000011),(-0.020000000000000018,0.)));
#130=IFCAXIS2PLACEMENT3D(#131,#132,#133);
#131=IFCCARTESIANPOINT((0.92500000000000004,0.060000000000000005,1.0149999999999999));
#132=IFCDIRECTION((0.,0.,1.));
#133=IFCDIRECTION((1.,0.,0.));
#134=IFCDIRECTION((0.,0.,1.));
#135=IFCSHAPEREPRESENTATION(#12,'Body','SweptSolid',(#71,#80,#116,#125,#126,#89,#98,#107));
#136=IFCDOORTYPE('3pIzvoIxfPwfejd_6HfHGK',$,'Door, oak, 1.00 x 2.10',$,$,$,(#141),$,$,.DOOR.,.SINGLE_SWING_LEFT.,$,$);
#137=IFCCARTESIANPOINT((0.,0.,0.));
#138=IFCDIRECTION((1.,0.,0.));
#139=IFCDIRECTION((0.,0.,1.));
#140=IFCAXIS2PLACEMENT3D(#137,#139,#138);
#141=IFCREPRESENTATIONMAP(#140,#135);
#142=IFCMATERIAL('Oak',$,'wood');
#143=IFCRELASSOCIATESMATERIAL('0Uof65WVzG7PS1CKDSDS_J',$,$,$,(#136,#300,#352),#142);
#144=IFCCARTESIANPOINTLIST2D(((0.,0.),(1.2,0.),(1.2,1.3999999999999999),(0.,1.3999999999999999)));
#145=IFCINDEXEDPOLYCURVE(#144,(IFCLINEINDEX((1,2,3,4,1))),$);
#146=IFCCARTESIANPOINTLIST2D(((0.025000000000000001,0.025000000000000001),(1.1749999999999998,0.025000000000000001),(1.1749999999999998,1.3749999999999998),(0.025000000000000001,1.3749999999999998)));
#147=IFCINDEXEDPOLYCURVE(#146,(IFCLINEINDEX((1,2,3,4,1))),$);
#148=IFCARBITRARYPROFILEDEFWITHVOIDS(.AREA.,$,#145,(#147));
#149=IFCCARTESIANPOINT((0.,0.089999999999999997,0.));
#150=IFCDIRECTION((0.,-1.,0.));
#151=IFCDIRECTION((1.,0.,0.));
#152=IFCAXIS2PLACEMENT3D(#149,#150,#151);
#153=IFCDIRECTION((0.,0.,-1.));
#154=IFCEXTRUDEDAREASOLID(#148,#152,#153,0.010000000000000002);
#155=IFCCARTESIANPOINTLIST2D(((0.,0.),(1.2,0.),(1.2,1.3999999999999999),(0.,1.3999999999999999)));
#156=IFCINDEXEDPOLYCURVE(#155,(IFCLINEINDEX((1,2,3,4,1))),$);
#157=IFCCARTESIANPOINTLIST2D(((0.050000000000000003,0.050000000000000003),(1.1499999999999999,0.050000000000000003),(1.1499999999999999,1.3499999999999999),(0.050000000000000003,1.3499999999999999)));
#158=IFCINDEXEDPOLYCURVE(#157,(IFCLINEINDEX((1,2,3,4,1))),$);
#159=IFCARBITRARYPROFILEDEFWITHVOIDS(.AREA.,$,#156,(#158));
#160=IFCCARTESIANPOINT((0.,0.050000000000000003,0.));
#161=IFCDIRECTION((0.,-1.,0.));
#162=IFCDIRECTION((1.,0.,0.));
#163=IFCAXIS2PLACEMENT3D(#160,#161,#162);
#164=IFCDIRECTION((0.,0.,-1.));
#165=IFCEXTRUDEDAREASOLID(#159,#163,#164,0.040000000000000001);
#166=IFCCARTESIANPOINTLIST2D(((0.,0.),(1.1499999999999999,0.),(1.1499999999999999,1.3499999999999999),(0.,1.3499999999999999)));
#167=IFCINDEXEDPOLYCURVE(#166,(IFCLINEINDEX((1,2,3,4,1))),$);
#168=IFCCARTESIANPOINTLIST2D(((0.035000000000000003,0.035000000000000003),(1.1149999999999998,0.035000000000000003),(1.1149999999999998,1.3149999999999997),(0.035000000000000003,1.3149999999999997)));
#169=IFCINDEXEDPOLYCURVE(#168,(IFCLINEINDEX((1,2,3,4,1))),$);
#170=IFCARBITRARYPROFILEDEFWITHVOIDS(.AREA.,$,#167,(#169));
#171=IFCCARTESIANPOINT((0.025000000000000001,0.089999999999999997,0.025000000000000001));
#172=IFCDIRECTION((0.,-1.,0.));
#173=IFCDIRECTION((1.,0.,0.));
#174=IFCAXIS2PLACEMENT3D(#171,#172,#173);
#175=IFCDIRECTION((0.,0.,-1.));
#176=IFCEXTRUDEDAREASOLID(#170,#174,#175,0.035000000000000003);
#177=IFCINDEXEDPOLYCURVE(#178,(IFCLINEINDEX((1,2,3,4,1))),$);
#178=IFCCARTESIANPOINTLIST2D(((0.035000000000000003,0.035000000000000003),(1.1149999999999998,0.035000000000000003),(1.1149999999999998,1.3149999999999997),(0.035000000000000003,1.3149999999999997)));
#179=IFCARBITRARYCLOSEDPROFILEDEF(.AREA.,$,#177);
#180=IFCCARTESIANPOINT((0.025000000000000001,0.10250000000000001,0.025000000000000001));
#181=IFCDIRECTION((0.,-1.,0.));
#182=IFCDIRECTION((1.,0.,0.));
#183=IFCAXIS2PLACEMENT3D(#180,#181,#182);
#184=IFCDIRECTION((0.,0.,-1.));
#185=IFCEXTRUDEDAREASOLID(#179,#183,#184,0.01);
#186=IFCSHAPEREPRESENTATION(#12,'Body','SweptSolid',(#154,#165,#176,#185));
#187=IFCWINDOWTYPE('1mGTlaJlPK29l8l7DGBOut',$,'Window, painted timber, 1.20 x 1.40',$,$,$,(#192),$,$,.WINDOW.,.SINGLE_PANEL.,$,$);
#188=IFCCARTESIANPOINT((0.,0.,0.));
#189=IFCDIRECTION((1.,0.,0.));
#190=IFCDIRECTION((0.,0.,1.));
#191=IFCAXIS2PLACEMENT3D(#188,#190,#189);
#192=IFCREPRESENTATIONMAP(#191,#186);
#193=IFCMATERIAL('Timber, painted',$,'wood');
#194=IFCRELASSOCIATESMATERIAL('0LgUzYTWjO_OqXON6Y11ad',$,$,$,(#187),#193);
#195=IFCCARTESIANPOINTLIST2D(((0.,0.),(0.29999999999999999,0.),(0.29999999999999999,0.29999999999999999),(0.,0.29999999999999999)));
#196=IFCINDEXEDPOLYCURVE(#195,(IFCLINEINDEX((1,2,3,4,1))),$);
#197=IFCARBITRARYCLOSEDPROFILEDEF(.AREA.,$,#196);
#198=IFCCARTESIANPOINT((0.,0.,0.));
#199=IFCDIRECTION((0.,0.,1.));
#200=IFCDIRECTION((1.,0.,0.));
#201=IFCAXIS2PLACEMENT3D(#198,#199,#200);
#202=IFCDIRECTION((0.,0.,1.));
#203=IFCEXTRUDEDAREASOLID(#197,#201,#202,2.6500000000000004);
#204=IFCSHAPEREPRESENTATION(#12,'Body','SweptSolid',(#203));
#205=IFCCOLUMNTYPE('0vKJIp9arSthTSr6UfDO2u',$,'Column 30 x 30, sandstone',$,$,$,(#210),$,$,.COLUMN.);
#206=IFCCARTESIANPOINT((0.,0.,0.));
#207=IFCDIRECTION((1.,0.,0.));
#208=IFCDIRECTION((0.,0.,1.));
#209=IFCAXIS2PLACEMENT3D(#206,#208,#207);
#210=IFCREPRESENTATIONMAP(#209,#204);
#211=IFCCARTESIANPOINTLIST2D(((0.,0.),(0.29999999999999999,0.),(0.29999999999999999,3.),(0.,3.)));
#212=IFCINDEXEDPOLYCURVE(#211,(IFCLINEINDEX((1,2,3,4,1))),$);
#213=IFCARBITRARYCLOSEDPROFILEDEF(.AREA.,$,#212);
#214=IFCCARTESIANPOINT((0.,0.,0.));
#215=IFCDIRECTION((0.,0.,1.));
#216=IFCDIRECTION((1.,0.,0.));
#217=IFCAXIS2PLACEMENT3D(#214,#215,#216);
#218=IFCDIRECTION((0.,0.,1.));
#219=IFCEXTRUDEDAREASOLID(#213,#217,#218,0.29999999999999999);
#220=IFCSHAPEREPRESENTATION(#12,'Body','SweptSolid',(#219));
#221=IFCBEAMTYPE('1nv9KnH3fV1uanlCaeTgXu',$,'Beam 30 x 30, timber',$,$,$,(#226),$,$,.BEAM.);
#222=IFCCARTESIANPOINT((0.,0.,0.));
#223=IFCDIRECTION((1.,0.,0.));
#224=IFCDIRECTION((0.,0.,1.));
#225=IFCAXIS2PLACEMENT3D(#222,#224,#223);
#226=IFCREPRESENTATIONMAP(#225,#220);
#227=IFCMATERIAL('Timber',$,'wood');
#228=IFCRELASSOCIATESMATERIAL('1eJCFdUorJ$8bbkshBdr3f',$,$,$,(#221),#227);
#229=IFCCARTESIANPOINTLIST2D(((-0.0050000000000000001,-0.0050000000000000001),(0.0050000000000000001,-0.0050000000000000001),(0.0050000000000000001,0.0050000000000000001),(-0.0050000000000000001,0.0050000000000000001)));
#230=IFCINDEXEDPOLYCURVE(#229,(IFCLINEINDEX((1,2,3,4,1))),$);
#231=IFCARBITRARYCLOSEDPROFILEDEF(.AREA.,$,#230);
#232=IFCCARTESIANPOINT((0.,0.,0.));
#233=IFCDIRECTION((0.,0.,1.));
#234=IFCDIRECTION((1.,0.,0.));
#235=IFCAXIS2PLACEMENT3D(#232,#233,#234);
#236=IFCDIRECTION((0.,0.,1.));
#237=IFCEXTRUDEDAREASOLID(#231,#235,#236,0.01);
#238=IFCSHAPEREPRESENTATION(#12,'Body','SweptSolid',(#237));
#239=IFCSTAIRTYPE('0VsGJmf7vVFRBL6V_7n2Fp',$,'Straight stair, two runs with landing',$,$,$,$,$,$,.TWO_STRAIGHT_RUN_STAIR.);
#240=IFCCARTESIANPOINT((0.,0.,0.));
#241=IFCDIRECTION((1.,0.,0.));
#242=IFCDIRECTION((0.,0.,1.));
#243=IFCAXIS2PLACEMENT3D(#240,#242,#241);
#244=IFCREPRESENTATIONMAP(#243,#238);
#245=IFCCARTESIANPOINTLIST2D(((-0.22500000000000001,-0.22500000000000001),(0.22500000000000001,-0.22500000000000001),(0.22500000000000001,0.22500000000000001),(-0.22500000000000001,0.22500000000000001)));
#246=IFCINDEXEDPOLYCURVE(#245,(IFCLINEINDEX((1,2,3,4,1))),$);
#247=IFCARBITRARYCLOSEDPROFILEDEF(.AREA.,$,#246);
#248=IFCCARTESIANPOINT((0.,0.,0.42999999999999999));
#249=IFCDIRECTION((0.,0.,1.));
#250=IFCDIRECTION((1.,0.,0.));
#251=IFCAXIS2PLACEMENT3D(#248,#249,#250);
#252=IFCDIRECTION((0.,0.,1.));
#253=IFCEXTRUDEDAREASOLID(#247,#251,#252,0.050000000000000003);
#254=IFCCARTESIANPOINTLIST2D(((-0.22500000000000001,0.17500000000000002),(0.22500000000000001,0.17500000000000002),(0.22500000000000001,0.22500000000000001),(-0.22500000000000001,0.22500000000000001)));
#255=IFCINDEXEDPOLYCURVE(#254,(IFCLINEINDEX((1,2,3,4,1))),$);
#256=IFCARBITRARYCLOSEDPROFILEDEF(.AREA.,$,#255);
#257=IFCCARTESIANPOINT((0.,0.,0.47999999999999998));
#258=IFCDIRECTION((0.,0.,1.));
#259=IFCDIRECTION((1.,0.,0.));
#260=IFCAXIS2PLACEMENT3D(#257,#258,#259);
#261=IFCDIRECTION((0.,0.,1.));
#262=IFCEXTRUDEDAREASOLID(#256,#260,#261,0.45000000000000001);
#263=IFCCARTESIANPOINTLIST2D(((-0.22,-0.22),(-0.18000000000000002,-0.22),(-0.18000000000000002,-0.18000000000000002),(-0.22,-0.18000000000000002)));
#264=IFCINDEXEDPOLYCURVE(#263,(IFCLINEINDEX((1,2,3,4,1))),$);
#265=IFCARBITRARYCLOSEDPROFILEDEF(.AREA.,$,#264);
#266=IFCCARTESIANPOINT((0.,0.,0.));
#267=IFCDIRECTION((0.,0.,1.));
#268=IFCDIRECTION((1.,0.,0.));
#269=IFCAXIS2PLACEMENT3D(#266,#267,#268);
#270=IFCDIRECTION((0.,0.,1.));
#271=IFCEXTRUDEDAREASOLID(#265,#269,#270,0.42999999999999999);
#272=IFCCARTESIANPOINTLIST2D(((-0.22,0.18000000000000002),(-0.18000000000000002,0.18000000000000002),(-0.18000000000000002,0.22),(-0.22,0.22)));
#273=IFCINDEXEDPOLYCURVE(#272,(IFCLINEINDEX((1,2,3,4,1))),$);
#274=IFCARBITRARYCLOSEDPROFILEDEF(.AREA.,$,#273);
#275=IFCCARTESIANPOINT((0.,0.,0.));
#276=IFCDIRECTION((0.,0.,1.));
#277=IFCDIRECTION((1.,0.,0.));
#278=IFCAXIS2PLACEMENT3D(#275,#276,#277);
#279=IFCDIRECTION((0.,0.,1.));
#280=IFCEXTRUDEDAREASOLID(#274,#278,#279,0.42999999999999999);
#281=IFCCARTESIANPOINTLIST2D(((0.18000000000000002,-0.22),(0.22,-0.22),(0.22,-0.18000000000000002),(0.18000000000000002,-0.18000000000000002)));
#282=IFCINDEXEDPOLYCURVE(#281,(IFCLINEINDEX((1,2,3,4,1))),$);
#283=IFCARBITRARYCLOSEDPROFILEDEF(.AREA.,$,#282);
#284=IFCCARTESIANPOINT((0.,0.,0.));
#285=IFCDIRECTION((0.,0.,1.));
#286=IFCDIRECTION((1.,0.,0.));
#287=IFCAXIS2PLACEMENT3D(#284,#285,#286);
#288=IFCDIRECTION((0.,0.,1.));
#289=IFCEXTRUDEDAREASOLID(#283,#287,#288,0.42999999999999999);
#290=IFCCARTESIANPOINTLIST2D(((0.18000000000000002,0.18000000000000002),(0.22,0.18000000000000002),(0.22,0.22),(0.18000000000000002,0.22)));
#291=IFCINDEXEDPOLYCURVE(#290,(IFCLINEINDEX((1,2,3,4,1))),$);
#292=IFCARBITRARYCLOSEDPROFILEDEF(.AREA.,$,#291);
#293=IFCCARTESIANPOINT((0.,0.,0.));
#294=IFCDIRECTION((0.,0.,1.));
#295=IFCDIRECTION((1.,0.,0.));
#296=IFCAXIS2PLACEMENT3D(#293,#294,#295);
#297=IFCDIRECTION((0.,0.,1.));
#298=IFCEXTRUDEDAREASOLID(#292,#296,#297,0.42999999999999999);
#299=IFCSHAPEREPRESENTATION(#12,'Body','SweptSolid',(#253,#262,#271,#280,#289,#298));
#300=IFCFURNITURETYPE('1tYrUcBNDRTQI8Ghs7Kel0',$,'Chair, oak',$,$,$,(#305),$,$,.NOTDEFINED.,.CHAIR.);
#301=IFCCARTESIANPOINT((0.,0.,0.));
#302=IFCDIRECTION((1.,0.,0.));
#303=IFCDIRECTION((0.,0.,1.));
#304=IFCAXIS2PLACEMENT3D(#301,#303,#302);
#305=IFCREPRESENTATIONMAP(#304,#299);
#306=IFCCARTESIANPOINTLIST2D(((-0.80000000000000004,-0.45000000000000001),(0.80000000000000004,-0.45000000000000001),(0.80000000000000004,0.45000000000000001),(-0.80000000000000004,0.45000000000000001)));
#307=IFCINDEXEDPOLYCURVE(#306,(IFCLINEINDEX((1,2,3,4,1))),$);
#308=IFCARBITRARYCLOSEDPROFILEDEF(.AREA.,$,#307);
#309=IFCCARTESIANPOINT((0.,0.,0.71999999999999997));
#310=IFCDIRECTION((0.,0.,1.));
#311=IFCDIRECTION((1.,0.,0.));
#312=IFCAXIS2PLACEMENT3D(#309,#310,#311);
#313=IFCDIRECTION((0.,0.,1.));
#314=IFCEXTRUDEDAREASOLID(#308,#312,#313,0.040000000000000001);
#315=IFCCARTESIANPOINTLIST2D(((-0.80000000000000004,-0.44999999999999996),(-0.73999999999999999,-0.44999999999999996),(-0.73999999999999999,-0.39000000000000001),(-0.80000000000000004,-0.39000000000000001)));
#316=IFCINDEXEDPOLYCURVE(#315,(IFCLINEINDEX((1,2,3,4,1))),$);
#317=IFCARBITRARYCLOSEDPROFILEDEF(.AREA.,$,#316);
#318=IFCCARTESIANPOINT((0.,0.,0.));
#319=IFCDIRECTION((0.,0.,1.));
#320=IFCDIRECTION((1.,0.,0.));
#321=IFCAXIS2PLACEMENT3D(#318,#319,#320);
#322=IFCDIRECTION((0.,0.,1.));
#323=IFCEXTRUDEDAREASOLID(#317,#321,#322,0.71999999999999997);
#324=IFCCARTESIANPOINTLIST2D(((-0.80000000000000004,0.39000000000000001),(-0.73999999999999999,0.39000000000000001),(-0.73999999999999999,0.44999999999999996),(-0.80000000000000004,0.44999999999999996)));
#325=IFCINDEXEDPOLYCURVE(#324,(IFCLINEINDEX((1,2,3,4,1))),$);
#326=IFCARBITRARYCLOSEDPROFILEDEF(.AREA.,$,#325);
#327=IFCCARTESIANPOINT((0.,0.,0.));
#328=IFCDIRECTION((0.,0.,1.));
#329=IFCDIRECTION((1.,0.,0.));
#330=IFCAXIS2PLACEMENT3D(#327,#328,#329);
#331=IFCDIRECTION((0.,0.,1.));
#332=IFCEXTRUDEDAREASOLID(#326,#330,#331,0.71999999999999997);
#333=IFCCARTESIANPOINTLIST2D(((0.73999999999999999,-0.44999999999999996),(0.80000000000000004,-0.44999999999999996),(0.80000000000000004,-0.39000000000000001),(0.73999999999999999,-0.39000000000000001)));
#334=IFCINDEXEDPOLYCURVE(#333,(IFCLINEINDEX((1,2,3,4,1))),$);
#335=IFCARBITRARYCLOSEDPROFILEDEF(.AREA.,$,#334);
#336=IFCCARTESIANPOINT((0.,0.,0.));
#337=IFCDIRECTION((0.,0.,1.));
#338=IFCDIRECTION((1.,0.,0.));
#339=IFCAXIS2PLACEMENT3D(#336,#337,#338);
#340=IFCDIRECTION((0.,0.,1.));
#341=IFCEXTRUDEDAREASOLID(#335,#339,#340,0.71999999999999997);
#342=IFCCARTESIANPOINTLIST2D(((0.73999999999999999,0.39000000000000001),(0.80000000000000004,0.39000000000000001),(0.80000000000000004,0.44999999999999996),(0.73999999999999999,0.44999999999999996)));
#343=IFCINDEXEDPOLYCURVE(#342,(IFCLINEINDEX((1,2,3,4,1))),$);
#344=IFCARBITRARYCLOSEDPROFILEDEF(.AREA.,$,#343);
#345=IFCCARTESIANPOINT((0.,0.,0.));
#346=IFCDIRECTION((0.,0.,1.));
#347=IFCDIRECTION((1.,0.,0.));
#348=IFCAXIS2PLACEMENT3D(#345,#346,#347);
#349=IFCDIRECTION((0.,0.,1.));
#350=IFCEXTRUDEDAREASOLID(#344,#348,#349,0.71999999999999997);
#351=IFCSHAPEREPRESENTATION(#12,'Body','SweptSolid',(#314,#323,#332,#341,#350));
#352=IFCFURNITURETYPE('2aLu7zf7nUGwq2eygyKTh$',$,'Table, oak, 1.60 x 0.90',$,$,$,(#357),$,$,.NOTDEFINED.,.TABLE.);
#353=IFCCARTESIANPOINT((0.,0.,0.));
#354=IFCDIRECTION((1.,0.,0.));
#355=IFCDIRECTION((0.,0.,1.));
#356=IFCAXIS2PLACEMENT3D(#353,#355,#354);
#357=IFCREPRESENTATIONMAP(#356,#351);
#358=IFCWALL('3FnbIrnZrRnAdyH9RpjVIj',$,'EG south wall',$,$,#381,#374,$,$);
#364=IFCCARTESIANPOINTLIST2D(((0.,0.),(0.,0.40000000000000002),(10.,0.40000000000000002),(10.,0.),(0.,0.)));
#365=IFCINDEXEDPOLYCURVE(#364,$,.F.);
#366=IFCDIRECTION((0.,0.,1.));
#367=IFCARBITRARYCLOSEDPROFILEDEF(.AREA.,$,#365);
#368=IFCCARTESIANPOINT((0.,0.,0.));
#369=IFCDIRECTION((0.,0.,1.));
#370=IFCDIRECTION((1.,0.,0.));
#371=IFCAXIS2PLACEMENT3D(#368,#369,#370);
#372=IFCEXTRUDEDAREASOLID(#367,#371,#366,2.9500000000000002);
#373=IFCSHAPEREPRESENTATION(#12,'Body','SweptSolid',(#372));
#374=IFCPRODUCTDEFINITIONSHAPE($,$,(#373));
#375=IFCRELDEFINESBYTYPE('35Dg0Wa1jQAAAuM3o6STh0',$,$,$,(#358,#393,#426,#459,#492,#526,#559,#592),#52);
#376=IFCRELCONTAINEDINSPATIALSTRUCTURE('3jqaf0SFvOlRLRrDsO$opm',$,$,$,(#358,#393,#426,#459,#625,#680,#733,#785,#890,#973,#1094,#1122,#1149,#1177,#1385,#1413,#1441,#1468,#1495),#29);
#377=IFCCARTESIANPOINT((0.,0.,0.));
#378=IFCDIRECTION((0.,0.,1.));
#379=IFCDIRECTION((1.,0.,0.));
#380=IFCAXIS2PLACEMENT3D(#377,#378,#379);
#381=IFCLOCALPLACEMENT(#46,#380);
#382=IFCPROPERTYSET('24q4aA_GvSCf5j2ziA1Oyq',$,'Pset_WallCommon',$,(#384));
#383=IFCRELDEFINESBYPROPERTIES('3maWN3UlvHrQN$RMudA$jS',$,$,$,(#358),#382);
#384=IFCPROPERTYSINGLEVALUE('IsExternal',$,IFCBOOLEAN(.T.),$);
#385=IFCPROPERTYSET('2X2$d5QIrUbRAxHm0qUiwJ',$,'ReconstructionEvidence',$,(#387,#388,#389,#390,#391,#392));
#386=IFCRELDEFINESBYPROPERTIES('3YaDnygOXHgemMAW1$f6Ta',$,$,$,(#358),#385);
#387=IFCPROPERTYSINGLEVALUE('ProductId',$,IFCIDENTIFIER('wall-eg-s'),$);
#388=IFCPROPERTYSINGLEVALUE('Category',$,IFCLABEL('exterior-wall'),$);
#389=IFCPROPERTYSINGLEVALUE('ClassificationBasis',$,IFCLABEL('authored'),$);
#390=IFCPROPERTYSINGLEVALUE('EvidenceBasis',$,IFCLABEL('measured'),$);
#391=IFCPROPERTYSINGLEVALUE('Confidence',$,IFCLABEL('high'),$);
#392=IFCPROPERTYSINGLEVALUE('Source',$,IFCTEXT('Golden example plan, sheet EG/OG (invented)'),$);
#393=IFCWALL('3pVcoBtRfKHPEMeGNLlyRF',$,'EG north wall',$,$,#414,#409,$,$);
#399=IFCCARTESIANPOINTLIST2D(((0.,0.),(0.,0.40000000000000002),(10.,0.40000000000000002),(10.,0.),(0.,0.)));
#400=IFCINDEXEDPOLYCURVE(#399,$,.F.);
#401=IFCDIRECTION((0.,0.,1.));
#402=IFCARBITRARYCLOSEDPROFILEDEF(.AREA.,$,#400);
#403=IFCCARTESIANPOINT((0.,0.,0.));
#404=IFCDIRECTION((0.,0.,1.));
#405=IFCDIRECTION((1.,0.,0.));
#406=IFCAXIS2PLACEMENT3D(#403,#404,#405);
#407=IFCEXTRUDEDAREASOLID(#402,#406,#401,2.9500000000000002);
#408=IFCSHAPEREPRESENTATION(#12,'Body','SweptSolid',(#407));
#409=IFCPRODUCTDEFINITIONSHAPE($,$,(#408));
#410=IFCCARTESIANPOINT((10.,6.,0.));
#411=IFCDIRECTION((0.,0.,1.));
#412=IFCDIRECTION((-1.,1.2246467991473532E-16,0.));
#413=IFCAXIS2PLACEMENT3D(#410,#411,#412);
#414=IFCLOCALPLACEMENT(#46,#413);
#415=IFCPROPERTYSET('03b073CSfTePW1Nvc7gQYO',$,'Pset_WallCommon',$,(#417));
#416=IFCRELDEFINESBYPROPERTIES('1bjZSvr4bH9h_o6A_4xAfQ',$,$,$,(#393),#415);
#417=IFCPROPERTYSINGLEVALUE('IsExternal',$,IFCBOOLEAN(.T.),$);
#418=IFCPROPERTYSET('1MRMc2bxHTguRTcT_usIe6',$,'ReconstructionEvidence',$,(#420,#421,#422,#423,#424,#425));
#419=IFCRELDEFINESBYPROPERTIES('1SPthfNRDQ_vuebc_16l$N',$,$,$,(#393),#418);
#420=IFCPROPERTYSINGLEVALUE('ProductId',$,IFCIDENTIFIER('wall-eg-n'),$);
#421=IFCPROPERTYSINGLEVALUE('Category',$,IFCLABEL('exterior-wall'),$);
#422=IFCPROPERTYSINGLEVALUE('ClassificationBasis',$,IFCLABEL('authored'),$);
#423=IFCPROPERTYSINGLEVALUE('EvidenceBasis',$,IFCLABEL('measured'),$);
#424=IFCPROPERTYSINGLEVALUE('Confidence',$,IFCLABEL('high'),$);
#425=IFCPROPERTYSINGLEVALUE('Source',$,IFCTEXT('Golden example plan, sheet EG/OG (invented)'),$);
#426=IFCWALL('0aqOPPuu1OGuRihfQv8ogb',$,'EG west wall',$,$,#447,#442,$,$);
#432=IFCCARTESIANPOINTLIST2D(((0.,0.),(0.,0.40000000000000002),(5.2000000000000002,0.40000000000000002),(5.2000000000000002,0.),(0.,0.)));
#433=IFCINDEXEDPOLYCURVE(#432,$,.F.);
#434=IFCDIRECTION((0.,0.,1.));
#435=IFCARBITRARYCLOSEDPROFILEDEF(.AREA.,$,#433);
#436=IFCCARTESIANPOINT((0.,0.,0.));
#437=IFCDIRECTION((0.,0.,1.));
#438=IFCDIRECTION((1.,0.,0.));
#439=IFCAXIS2PLACEMENT3D(#436,#437,#438);
#440=IFCEXTRUDEDAREASOLID(#435,#439,#434,2.9500000000000002);
#441=IFCSHAPEREPRESENTATION(#12,'Body','SweptSolid',(#440));
#442=IFCPRODUCTDEFINITIONSHAPE($,$,(#441));
#443=IFCCARTESIANPOINT((0.,5.5999999999999996,0.));
#444=IFCDIRECTION((0.,0.,1.));
#445=IFCDIRECTION((-1.8369701987210297E-16,-1.,0.));
#446=IFCAXIS2PLACEMENT3D(#443,#444,#445);
#447=IFCLOCALPLACEMENT(#46,#446);
#448=IFCPROPERTYSET('3p5fck7gLVVPpQDzGsTXgm',$,'Pset_WallCommon',$,(#450));
#449=IFCRELDEFINESBYPROPERTIES('1XBjffttrOzesjK02me7Nd',$,$,$,(#426),#448);
#450=IFCPROPERTYSINGLEVALUE('IsExternal',$,IFCBOOLEAN(.T.),$);
#451=IFCPROPERTYSET('3xmyT3w0jIHuCXp5Rs$LPi',$,'ReconstructionEvidence',$,(#453,#454,#455,#456,#457,#458));
#452=IFCRELDEFINESBYPROPERTIES('2WhEm_eJrHuBY$z1xWbjgc',$,$,$,(#426),#451);
#453=IFCPROPERTYSINGLEVALUE('ProductId',$,IFCIDENTIFIER('wall-eg-w'),$);
#454=IFCPROPERTYSINGLEVALUE('Category',$,IFCLABEL('exterior-wall'),$);
#455=IFCPROPERTYSINGLEVALUE('ClassificationBasis',$,IFCLABEL('authored'),$);
#456=IFCPROPERTYSINGLEVALUE('EvidenceBasis',$,IFCLABEL('measured'),$);
#457=IFCPROPERTYSINGLEVALUE('Confidence',$,IFCLABEL('high'),$);
#458=IFCPROPERTYSINGLEVALUE('Source',$,IFCTEXT('Golden example plan, sheet EG/OG (invented)'),$);
#459=IFCWALL('2st4LvuEzG$QvR4TA5Nxs0',$,'EG east wall',$,$,#480,#475,$,$);
#465=IFCCARTESIANPOINTLIST2D(((0.,0.),(0.,0.40000000000000002),(5.2000000000000002,0.40000000000000002),(5.2000000000000002,0.),(0.,0.)));
#466=IFCINDEXEDPOLYCURVE(#465,$,.F.);
#467=IFCDIRECTION((0.,0.,1.));
#468=IFCARBITRARYCLOSEDPROFILEDEF(.AREA.,$,#466);
#469=IFCCARTESIANPOINT((0.,0.,0.));
#470=IFCDIRECTION((0.,0.,1.));
#471=IFCDIRECTION((1.,0.,0.));
#472=IFCAXIS2PLACEMENT3D(#469,#470,#471);
#473=IFCEXTRUDEDAREASOLID(#468,#472,#467,2.9500000000000002);
#474=IFCSHAPEREPRESENTATION(#12,'Body','SweptSolid',(#473));
#475=IFCPRODUCTDEFINITIONSHAPE($,$,(#474));
#476=IFCCARTESIANPOINT((10.,0.40000000000000002,0.));
#477=IFCDIRECTION((0.,0.,1.));
#478=IFCDIRECTION((6.123233995736766E-17,1.,0.));
#479=IFCAXIS2PLACEMENT3D(#476,#477,#478);
#480=IFCLOCALPLACEMENT(#46,#479);
#481=IFCPROPERTYSET('2d20EaJgTIceKCKFZ7j0LV',$,'Pset_WallCommon',$,(#483));
#482=IFCRELDEFINESBYPROPERTIES('2Ql4TSniHTLh6VEHEbnPXh',$,$,$,(#459),#481);
#483=IFCPROPERTYSINGLEVALUE('IsExternal',$,IFCBOOLEAN(.T.),$);
#484=IFCPROPERTYSET('1cFGY_V0rT5O29sCbs7nUu',$,'ReconstructionEvidence',$,(#486,#487,#488,#489,#490,#491));
#485=IFCRELDEFINESBYPROPERTIES('3v9gXWLFbNDebnnpEf2PYh',$,$,$,(#459),#484);
#486=IFCPROPERTYSINGLEVALUE('ProductId',$,IFCIDENTIFIER('wall-eg-e'),$);
#487=IFCPROPERTYSINGLEVALUE('Category',$,IFCLABEL('exterior-wall'),$);
#488=IFCPROPERTYSINGLEVALUE('ClassificationBasis',$,IFCLABEL('authored'),$);
#489=IFCPROPERTYSINGLEVALUE('EvidenceBasis',$,IFCLABEL('measured'),$);
#490=IFCPROPERTYSINGLEVALUE('Confidence',$,IFCLABEL('high'),$);
#491=IFCPROPERTYSINGLEVALUE('Source',$,IFCTEXT('Golden example plan, sheet EG/OG (invented)'),$);
#492=IFCWALL('3qSfNJ7LDNtOTiXVP3VHLC',$,'OG south wall',$,$,#514,#508,$,$);
#498=IFCCARTESIANPOINTLIST2D(((0.,0.),(0.,0.40000000000000002),(10.,0.40000000000000002),(10.,0.),(0.,0.)));
#499=IFCINDEXEDPOLYCURVE(#498,$,.F.);
#500=IFCDIRECTION((0.,0.,1.));
#501=IFCARBITRARYCLOSEDPROFILEDEF(.AREA.,$,#499);
#502=IFCCARTESIANPOINT((0.,0.,0.));
#503=IFCDIRECTION((0.,0.,1.));
#504=IFCDIRECTION((1.,0.,0.));
#505=IFCAXIS2PLACEMENT3D(#502,#503,#504);
#506=IFCEXTRUDEDAREASOLID(#501,#505,#500,2.9500000000000002);
#507=IFCSHAPEREPRESENTATION(#12,'Body','SweptSolid',(#506));
#508=IFCPRODUCTDEFINITIONSHAPE($,$,(#507));
#509=IFCRELCONTAINEDINSPATIALSTRUCTURE('1XTOalMzjUaPGAsOAuy3ac',$,$,$,(#492,#526,#559,#592,#838,#942,#1007,#1042),#35);
#510=IFCCARTESIANPOINT((0.,0.,0.));
#511=IFCDIRECTION((0.,0.,1.));
#512=IFCDIRECTION((1.,0.,0.));
#513=IFCAXIS2PLACEMENT3D(#510,#511,#512);
#514=IFCLOCALPLACEMENT(#51,#513);
#515=IFCPROPERTYSET('2pR3NsV3DKTObIAMNnYYR5',$,'Pset_WallCommon',$,(#517));
#516=IFCRELDEFINESBYPROPERTIES('3Nm_gD$F5Rpx0MvvRI4Lfh',$,$,$,(#492),#515);
#517=IFCPROPERTYSINGLEVALUE('IsExternal',$,IFCBOOLEAN(.T.),$);
#518=IFCPROPERTYSET('0Gv$T4lBbUxAcU4kMFVNjl',$,'ReconstructionEvidence',$,(#520,#521,#522,#523,#524,#525));
#519=IFCRELDEFINESBYPROPERTIES('3_C2yKegTScRTnxhJTH2I1',$,$,$,(#492),#518);
#520=IFCPROPERTYSINGLEVALUE('ProductId',$,IFCIDENTIFIER('wall-og-s'),$);
#521=IFCPROPERTYSINGLEVALUE('Category',$,IFCLABEL('exterior-wall'),$);
#522=IFCPROPERTYSINGLEVALUE('ClassificationBasis',$,IFCLABEL('authored'),$);
#523=IFCPROPERTYSINGLEVALUE('EvidenceBasis',$,IFCLABEL('measured'),$);
#524=IFCPROPERTYSINGLEVALUE('Confidence',$,IFCLABEL('high'),$);
#525=IFCPROPERTYSINGLEVALUE('Source',$,IFCTEXT('Golden example plan, sheet EG/OG (invented)'),$);
#526=IFCWALL('1Z2oJJcX1VBgtftyH6aSw7',$,'OG north wall',$,$,#547,#542,$,$);
#532=IFCCARTESIANPOINTLIST2D(((0.,0.),(0.,0.40000000000000002),(10.,0.40000000000000002),(10.,0.),(0.,0.)));
#533=IFCINDEXEDPOLYCURVE(#532,$,.F.);
#534=IFCDIRECTION((0.,0.,1.));
#535=IFCARBITRARYCLOSEDPROFILEDEF(.AREA.,$,#533);
#536=IFCCARTESIANPOINT((0.,0.,0.));
#537=IFCDIRECTION((0.,0.,1.));
#538=IFCDIRECTION((1.,0.,0.));
#539=IFCAXIS2PLACEMENT3D(#536,#537,#538);
#540=IFCEXTRUDEDAREASOLID(#535,#539,#534,2.9500000000000002);
#541=IFCSHAPEREPRESENTATION(#12,'Body','SweptSolid',(#540));
#542=IFCPRODUCTDEFINITIONSHAPE($,$,(#541));
#543=IFCCARTESIANPOINT((10.,6.,0.));
#544=IFCDIRECTION((0.,0.,1.));
#545=IFCDIRECTION((-1.,1.2246467991473532E-16,0.));
#546=IFCAXIS2PLACEMENT3D(#543,#544,#545);
#547=IFCLOCALPLACEMENT(#51,#546);
#548=IFCPROPERTYSET('25wITbHmrNIAbt8lqsOpEM',$,'Pset_WallCommon',$,(#550));
#549=IFCRELDEFINESBYPROPERTIES('0gQRQrT09OtAizFRhOqkrc',$,$,$,(#526),#548);
#550=IFCPROPERTYSINGLEVALUE('IsExternal',$,IFCBOOLEAN(.T.),$);
#551=IFCPROPERTYSET('3nwfLY2BnIhh68bHo0fuvD',$,'ReconstructionEvidence',$,(#553,#554,#555,#556,#557,#558));
#552=IFCRELDEFINESBYPROPERTIES('2yXmK9PC5J8fxeGuRvSsZ7',$,$,$,(#526),#551);
#553=IFCPROPERTYSINGLEVALUE('ProductId',$,IFCIDENTIFIER('wall-og-n'),$);
#554=IFCPROPERTYSINGLEVALUE('Category',$,IFCLABEL('exterior-wall'),$);
#555=IFCPROPERTYSINGLEVALUE('ClassificationBasis',$,IFCLABEL('authored'),$);
#556=IFCPROPERTYSINGLEVALUE('EvidenceBasis',$,IFCLABEL('measured'),$);
#557=IFCPROPERTYSINGLEVALUE('Confidence',$,IFCLABEL('high'),$);
#558=IFCPROPERTYSINGLEVALUE('Source',$,IFCTEXT('Golden example plan, sheet EG/OG (invented)'),$);
#559=IFCWALL('2y_sXGaQ5SvR7BcY7Ia6FM',$,'OG west wall',$,$,#580,#575,$,$);
#565=IFCCARTESIANPOINTLIST2D(((0.,0.),(0.,0.40000000000000002),(5.2000000000000002,0.40000000000000002),(5.2000000000000002,0.),(0.,0.)));
#566=IFCINDEXEDPOLYCURVE(#565,$,.F.);
#567=IFCDIRECTION((0.,0.,1.));
#568=IFCARBITRARYCLOSEDPROFILEDEF(.AREA.,$,#566);
#569=IFCCARTESIANPOINT((0.,0.,0.));
#570=IFCDIRECTION((0.,0.,1.));
#571=IFCDIRECTION((1.,0.,0.));
#572=IFCAXIS2PLACEMENT3D(#569,#570,#571);
#573=IFCEXTRUDEDAREASOLID(#568,#572,#567,2.9500000000000002);
#574=IFCSHAPEREPRESENTATION(#12,'Body','SweptSolid',(#573));
#575=IFCPRODUCTDEFINITIONSHAPE($,$,(#574));
#576=IFCCARTESIANPOINT((0.,5.5999999999999996,0.));
#577=IFCDIRECTION((0.,0.,1.));
#578=IFCDIRECTION((-1.8369701987210297E-16,-1.,0.));
#579=IFCAXIS2PLACEMENT3D(#576,#577,#578);
#580=IFCLOCALPLACEMENT(#51,#579);
#581=IFCPROPERTYSET('1hWZPLj0rJYOLhYG7xWsMx',$,'Pset_WallCommon',$,(#583));
#582=IFCRELDEFINESBYPROPERTIES('2KAHiNfDrJ1xplHun1OaQO',$,$,$,(#559),#581);
#583=IFCPROPERTYSINGLEVALUE('IsExternal',$,IFCBOOLEAN(.T.),$);
#584=IFCPROPERTYSET('3dEDFBq7zSGRqMDK5cDtij',$,'ReconstructionEvidence',$,(#586,#587,#588,#589,#590,#591));
#585=IFCRELDEFINESBYPROPERTIES('1sHkeLGmHUQ8$SZwdsfsg1',$,$,$,(#559),#584);
#586=IFCPROPERTYSINGLEVALUE('ProductId',$,IFCIDENTIFIER('wall-og-w'),$);
#587=IFCPROPERTYSINGLEVALUE('Category',$,IFCLABEL('exterior-wall'),$);
#588=IFCPROPERTYSINGLEVALUE('ClassificationBasis',$,IFCLABEL('authored'),$);
#589=IFCPROPERTYSINGLEVALUE('EvidenceBasis',$,IFCLABEL('measured'),$);
#590=IFCPROPERTYSINGLEVALUE('Confidence',$,IFCLABEL('high'),$);
#591=IFCPROPERTYSINGLEVALUE('Source',$,IFCTEXT('Golden example plan, sheet EG/OG (invented)'),$);
#592=IFCWALL('3oZy7wRSPHiPHpz1__4TNW',$,'OG east wall',$,$,#613,#608,$,$);
#598=IFCCARTESIANPOINTLIST2D(((0.,0.),(0.,0.40000000000000002),(5.2000000000000002,0.40000000000000002),(5.2000000000000002,0.),(0.,0.)));
#599=IFCINDEXEDPOLYCURVE(#598,$,.F.);
#600=IFCDIRECTION((0.,0.,1.));
#601=IFCARBITRARYCLOSEDPROFILEDEF(.AREA.,$,#599);
#602=IFCCARTESIANPOINT((0.,0.,0.));
#603=IFCDIRECTION((0.,0.,1.));
#604=IFCDIRECTION((1.,0.,0.));
#605=IFCAXIS2PLACEMENT3D(#602,#603,#604);
#606=IFCEXTRUDEDAREASOLID(#601,#605,#600,2.9500000000000002);
#607=IFCSHAPEREPRESENTATION(#12,'Body','SweptSolid',(#606));
#608=IFCPRODUCTDEFINITIONSHAPE($,$,(#607));
#609=IFCCARTESIANPOINT((10.,0.40000000000000002,0.));
#610=IFCDIRECTION((0.,0.,1.));
#611=IFCDIRECTION((6.123233995736766E-17,1.,0.));
#612=IFCAXIS2PLACEMENT3D(#609,#610,#611);
#613=IFCLOCALPLACEMENT(#51,#612);
#614=IFCPROPERTYSET('1cfpVvUJDI2wU_196t53lz',$,'Pset_WallCommon',$,(#616));
#615=IFCRELDEFINESBYPROPERTIES('1N5tUr28TIBhLEAtgHD2dl',$,$,$,(#592),#614);
#616=IFCPROPERTYSINGLEVALUE('IsExternal',$,IFCBOOLEAN(.T.),$);
#617=IFCPROPERTYSET('12WfxIWQ1GzgYwHUWO2H$m',$,'ReconstructionEvidence',$,(#619,#620,#621,#622,#623,#624));
#618=IFCRELDEFINESBYPROPERTIES('0Ik2RQAcTOjR$ApJXcQmtk',$,$,$,(#592),#617);
#619=IFCPROPERTYSINGLEVALUE('ProductId',$,IFCIDENTIFIER('wall-og-e'),$);
#620=IFCPROPERTYSINGLEVALUE('Category',$,IFCLABEL('exterior-wall'),$);
#621=IFCPROPERTYSINGLEVALUE('ClassificationBasis',$,IFCLABEL('authored'),$);
#622=IFCPROPERTYSINGLEVALUE('EvidenceBasis',$,IFCLABEL('measured'),$);
#623=IFCPROPERTYSINGLEVALUE('Confidence',$,IFCLABEL('high'),$);
#624=IFCPROPERTYSINGLEVALUE('Source',$,IFCTEXT('Golden example plan, sheet EG/OG (invented)'),$);
#625=IFCWALL('2J6f4CcOjJ1BOMFa3uEzT4',$,'EG partition Halle/Saal',$,$,#647,#641,$,$);
#631=IFCCARTESIANPOINTLIST2D(((0.,0.),(0.,0.14999999999999999),(5.2000000000000002,0.14999999999999999),(5.2000000000000002,0.),(0.,0.)));
#632=IFCINDEXEDPOLYCURVE(#631,$,.F.);
#633=IFCDIRECTION((0.,0.,1.));
#634=IFCARBITRARYCLOSEDPROFILEDEF(.AREA.,$,#632);
#635=IFCCARTESIANPOINT((0.,0.,0.));
#636=IFCDIRECTION((0.,0.,1.));
#637=IFCDIRECTION((1.,0.,0.));
#638=IFCAXIS2PLACEMENT3D(#635,#636,#637);
#639=IFCEXTRUDEDAREASOLID(#634,#638,#633,2.9500000000000002);
#640=IFCSHAPEREPRESENTATION(#12,'Body','SweptSolid',(#639));
#641=IFCPRODUCTDEFINITIONSHAPE($,$,(#640));
#642=IFCRELDEFINESBYTYPE('1h787iToLMhBK7_G4PngKP',$,$,$,(#625),#55);
#643=IFCCARTESIANPOINT((6.1500000000000004,0.40000000000000002,0.));
#644=IFCDIRECTION((0.,0.,1.));
#645=IFCDIRECTION((6.123233995736766E-17,1.,0.));
#646=IFCAXIS2PLACEMENT3D(#643,#644,#645);
#647=IFCLOCALPLACEMENT(#46,#646);
#648=IFCPROPERTYSET('0WHdnHDO1PnQDXVk5aglct',$,'Pset_WallCommon',$,(#650));
#649=IFCRELDEFINESBYPROPERTIES('0IECvJE8vILesy$ajNs3Vp',$,$,$,(#625),#648);
#650=IFCPROPERTYSINGLEVALUE('IsExternal',$,IFCBOOLEAN(.F.),$);
#651=IFCPROPERTYSET('3ppR8YvhjOl9ftn2fu2Nsw',$,'ReconstructionEvidence',$,(#653,#654,#655,#656,#657,#658));
#652=IFCRELDEFINESBYPROPERTIES('1tm7UBGVrU792ORxfNPabE',$,$,$,(#625),#651);
#653=IFCPROPERTYSINGLEVALUE('ProductId',$,IFCIDENTIFIER('wall-eg-i1'),$);
#654=IFCPROPERTYSINGLEVALUE('Category',$,IFCLABEL('interior-wall'),$);
#655=IFCPROPERTYSINGLEVALUE('ClassificationBasis',$,IFCLABEL('authored'),$);
#656=IFCPROPERTYSINGLEVALUE('EvidenceBasis',$,IFCLABEL('measured'),$);
#657=IFCPROPERTYSINGLEVALUE('Confidence',$,IFCLABEL('high'),$);
#658=IFCPROPERTYSINGLEVALUE('Source',$,IFCTEXT('Golden example plan, sheet EG/OG (invented)'),$);
#659=IFCOPENINGELEMENT('3foie4BCfO6hAr0OHQ_xc0',$,'Opening opening-door-eg-entrance',$,$,#679,#670,$,.OPENING.);
#660=IFCCARTESIANPOINTLIST2D(((2.,-0.049999999999999989),(3.,-0.049999999999999989),(3.,0.45000000000000001),(2.,0.45000000000000001)));
#661=IFCINDEXEDPOLYCURVE(#660,(IFCLINEINDEX((1,2,3,4,1))),$);
#662=IFCARBITRARYCLOSEDPROFILEDEF(.AREA.,$,#661);
#663=IFCCARTESIANPOINT((0.,0.,0.));
#664=IFCDIRECTION((0.,0.,1.));
#665=IFCDIRECTION((1.,0.,0.));
#666=IFCAXIS2PLACEMENT3D(#663,#664,#665);
#667=IFCDIRECTION((0.,0.,1.));
#668=IFCEXTRUDEDAREASOLID(#662,#666,#667,2.1000000000000001);
#669=IFCSHAPEREPRESENTATION(#12,'Body','SweptSolid',(#668));
#670=IFCPRODUCTDEFINITIONSHAPE($,$,(#669));
#674=IFCRELVOIDSELEMENT('0rV2EM9pXNGv_1VfoKAMRt',$,$,$,#358,#659);
#675=IFCCARTESIANPOINT((0.,0.,0.));
#676=IFCDIRECTION((0.,0.,1.));
#677=IFCDIRECTION((1.,0.,0.));
#678=IFCAXIS2PLACEMENT3D(#675,#676,#677);
#679=IFCLOCALPLACEMENT(#381,#678);
#680=IFCDOOR('0a07Ku2hLHp9i2ySYPHiYU',$,'Entrance door',$,$,#699,#694,$,2.1000000000000001,1.,$,$,$);
#686=IFCRELDEFINESBYTYPE('0076eJmUbLoeV42nxTYNfC',$,$,$,(#680,#733),#136);
#687=IFCCARTESIANPOINT((0.,0.,0.));
#688=IFCDIRECTION((1.,0.,0.));
#689=IFCDIRECTION((0.,1.,0.));
#690=IFCDIRECTION((0.,0.,1.));
#691=IFCCARTESIANTRANSFORMATIONOPERATOR3D(#688,#689,#687,1.,#690);
#692=IFCMAPPEDITEM(#141,#691);
#693=IFCSHAPEREPRESENTATION(#12,'Body','MappedRepresentation',(#692));
#694=IFCPRODUCTDEFINITIONSHAPE($,$,(#693));
#695=IFCCARTESIANPOINT((2.,0.,0.));
#696=IFCDIRECTION((0.,0.,1.));
#697=IFCDIRECTION((1.,0.,0.));
#698=IFCAXIS2PLACEMENT3D(#695,#696,#697);
#699=IFCLOCALPLACEMENT(#46,#698);
#700=IFCPROPERTYSET('3bM8Veg1TJpPWrUJcCzsMX',$,'ReconstructionEvidence',$,(#702,#703,#704,#705,#706,#707));
#701=IFCRELDEFINESBYPROPERTIES('1hz5mNe29GgBXo69Hm6YE_',$,$,$,(#680),#700);
#702=IFCPROPERTYSINGLEVALUE('ProductId',$,IFCIDENTIFIER('door-eg-entrance'),$);
#703=IFCPROPERTYSINGLEVALUE('Category',$,IFCLABEL('door'),$);
#704=IFCPROPERTYSINGLEVALUE('ClassificationBasis',$,IFCLABEL('authored'),$);
#705=IFCPROPERTYSINGLEVALUE('EvidenceBasis',$,IFCLABEL('measured'),$);
#706=IFCPROPERTYSINGLEVALUE('Confidence',$,IFCLABEL('medium'),$);
#707=IFCPROPERTYSINGLEVALUE('Source',$,IFCTEXT('Golden example facade photo (invented)'),$);
#708=IFCRELFILLSELEMENT('0vF2HAXXPJgwyVm9fwIskM',$,$,$,#659,#680);
#709=IFCPROPERTYSET('14j9OeizPIL83xgabuTkXV',$,'Pset_DoorCommon',$,(#711));
#710=IFCRELDEFINESBYPROPERTIES('3EtB2NmlrLMOmxUMRbfSAZ',$,$,$,(#680),#709);
#711=IFCPROPERTYSINGLEVALUE('IsExternal',$,IFCBOOLEAN(.T.),$);
#712=IFCOPENINGELEMENT('0oR94X8MXUm9lrXee3a7iK',$,'Opening opening-door-eg-saal',$,$,#732,#723,$,.OPENING.);
#713=IFCCARTESIANPOINTLIST2D(((1.,-0.050000000000000003),(2.,-0.050000000000000003),(2.,0.20000000000000001),(1.,0.20000000000000001)));
#714=IFCINDEXEDPOLYCURVE(#713,(IFCLINEINDEX((1,2,3,4,1))),$);
#715=IFCARBITRARYCLOSEDPROFILEDEF(.AREA.,$,#714);
#716=IFCCARTESIANPOINT((0.,0.,0.));
#717=IFCDIRECTION((0.,0.,1.));
#718=IFCDIRECTION((1.,0.,0.));
#719=IFCAXIS2PLACEMENT3D(#716,#717,#718);
#720=IFCDIRECTION((0.,0.,1.));
#721=IFCEXTRUDEDAREASOLID(#715,#719,#720,2.1000000000000001);
#722=IFCSHAPEREPRESENTATION(#12,'Body','SweptSolid',(#721));
#723=IFCPRODUCTDEFINITIONSHAPE($,$,(#722));
#727=IFCRELVOIDSELEMENT('1IZuiXyczLSAp5zy8rGkRM',$,$,$,#625,#712);
#728=IFCCARTESIANPOINT((0.,0.,0.));
#729=IFCDIRECTION((0.,0.,1.));
#730=IFCDIRECTION((1.,0.,0.));
#731=IFCAXIS2PLACEMENT3D(#728,#729,#730);
#732=IFCLOCALPLACEMENT(#647,#731);
#733=IFCDOOR('2TxCSO11HNY819EUc3dGtm',$,'Door Halle/Saal',$,$,#751,#746,$,2.1000000000000001,1.,$,$,$);
#739=IFCCARTESIANPOINT((0.,0.,0.));
#740=IFCDIRECTION((1.,0.,0.));
#741=IFCDIRECTION((0.,1.,0.));
#742=IFCDIRECTION((0.,0.,1.));
#743=IFCCARTESIANTRANSFORMATIONOPERATOR3D(#740,#741,#739,1.,#742);
#744=IFCMAPPEDITEM(#141,#743);
#745=IFCSHAPEREPRESENTATION(#12,'Body','MappedRepresentation',(#744));
#746=IFCPRODUCTDEFINITIONSHAPE($,$,(#745));
#747=IFCCARTESIANPOINT((6.1500000000000004,1.3999999999999999,0.));
#748=IFCDIRECTION((0.,0.,1.));
#749=IFCDIRECTION((6.123233995736766E-17,1.,0.));
#750=IFCAXIS2PLACEMENT3D(#747,#748,#749);
#751=IFCLOCALPLACEMENT(#46,#750);
#752=IFCPROPERTYSET('0VXajKMaTUXfwmecsDf1QW',$,'ReconstructionEvidence',$,(#754,#755,#756,#757,#758,#759));
#753=IFCRELDEFINESBYPROPERTIES('2sGKoFeM9TjxEDPqwAFLgG',$,$,$,(#733),#752);
#754=IFCPROPERTYSINGLEVALUE('ProductId',$,IFCIDENTIFIER('door-eg-saal'),$);
#755=IFCPROPERTYSINGLEVALUE('Category',$,IFCLABEL('door'),$);
#756=IFCPROPERTYSINGLEVALUE('ClassificationBasis',$,IFCLABEL('authored'),$);
#757=IFCPROPERTYSINGLEVALUE('EvidenceBasis',$,IFCLABEL('measured'),$);
#758=IFCPROPERTYSINGLEVALUE('Confidence',$,IFCLABEL('medium'),$);
#759=IFCPROPERTYSINGLEVALUE('Source',$,IFCTEXT('Golden example facade photo (invented)'),$);
#760=IFCRELFILLSELEMENT('2iPOvCj01OggIggH6iCF$F',$,$,$,#712,#733);
#761=IFCPROPERTYSET('1E_5_WXs5H5A$2fZvhcVe2',$,'Pset_DoorCommon',$,(#763));
#762=IFCRELDEFINESBYPROPERTIES('2mzHm2nbTVbgD3tU7ch5FM',$,$,$,(#733),#761);
#763=IFCPROPERTYSINGLEVALUE('IsExternal',$,IFCBOOLEAN(.F.),$);
#764=IFCOPENINGELEMENT('0XD8HCfC9IleSr$5zdeIJh',$,'Opening opening-window-eg-s1',$,$,#784,#775,$,.OPENING.);
#765=IFCCARTESIANPOINTLIST2D(((3.9999999999999996,-0.049999999999999989),(5.1999999999999993,-0.049999999999999989),(5.1999999999999993,0.45000000000000001),(3.9999999999999996,0.45000000000000001)));
#766=IFCINDEXEDPOLYCURVE(#765,(IFCLINEINDEX((1,2,3,4,1))),$);
#767=IFCARBITRARYCLOSEDPROFILEDEF(.AREA.,$,#766);
#768=IFCCARTESIANPOINT((0.,0.,0.90000000000000002));
#769=IFCDIRECTION((0.,0.,1.));
#770=IFCDIRECTION((1.,0.,0.));
#771=IFCAXIS2PLACEMENT3D(#768,#769,#770);
#772=IFCDIRECTION((0.,0.,1.));
#773=IFCEXTRUDEDAREASOLID(#767,#771,#772,1.3999999999999999);
#774=IFCSHAPEREPRESENTATION(#12,'Body','SweptSolid',(#773));
#775=IFCPRODUCTDEFINITIONSHAPE($,$,(#774));
#779=IFCRELVOIDSELEMENT('31uEVcpfDGFvndh$XLOAWw',$,$,$,#358,#764);
#780=IFCCARTESIANPOINT((0.,0.,0.));
#781=IFCDIRECTION((0.,0.,1.));
#782=IFCDIRECTION((1.,0.,0.));
#783=IFCAXIS2PLACEMENT3D(#780,#781,#782);
#784=IFCLOCALPLACEMENT(#381,#783);
#785=IFCWINDOW('0iNPofY0zSvhY9urq7b8K4',$,'EG south window 1',$,$,#804,#799,$,1.3999999999999999,1.2,$,$,$);
#791=IFCRELDEFINESBYTYPE('0IUWf5wO5GvvaxeRY_Dqi4',$,$,$,(#785,#838,#890,#942),#187);
#792=IFCCARTESIANPOINT((0.,0.,0.));
#793=IFCDIRECTION((1.,0.,0.));
#794=IFCDIRECTION((0.,1.,0.));
#795=IFCDIRECTION((0.,0.,1.));
#796=IFCCARTESIANTRANSFORMATIONOPERATOR3D(#793,#794,#792,1.,#795);
#797=IFCMAPPEDITEM(#192,#796);
#798=IFCSHAPEREPRESENTATION(#12,'Body','MappedRepresentation',(#797));
#799=IFCPRODUCTDEFINITIONSHAPE($,$,(#798));
#800=IFCCARTESIANPOINT((4.,0.,0.90000000000000002));
#801=IFCDIRECTION((0.,0.,1.));
#802=IFCDIRECTION((1.,0.,0.));
#803=IFCAXIS2PLACEMENT3D(#800,#801,#802);
#804=IFCLOCALPLACEMENT(#46,#803);
#805=IFCPROPERTYSET('0IPCEqHNjJjg6j7$pNRLT1',$,'ReconstructionEvidence',$,(#807,#808,#809,#810,#811,#812));
#806=IFCRELDEFINESBYPROPERTIES('3k6SJzEBvMIOoMBls6$nHx',$,$,$,(#785),#805);
#807=IFCPROPERTYSINGLEVALUE('ProductId',$,IFCIDENTIFIER('window-eg-s1'),$);
#808=IFCPROPERTYSINGLEVALUE('Category',$,IFCLABEL('window'),$);
#809=IFCPROPERTYSINGLEVALUE('ClassificationBasis',$,IFCLABEL('authored'),$);
#810=IFCPROPERTYSINGLEVALUE('EvidenceBasis',$,IFCLABEL('measured'),$);
#811=IFCPROPERTYSINGLEVALUE('Confidence',$,IFCLABEL('medium'),$);
#812=IFCPROPERTYSINGLEVALUE('Source',$,IFCTEXT('Golden example facade photo (invented)'),$);
#813=IFCRELFILLSELEMENT('3xfv9KdSrVgwUjgo9BUsKK',$,$,$,#764,#785);
#814=IFCPROPERTYSET('3XrfODxkvV$83Hs7aDnsGx',$,'Pset_WindowCommon',$,(#816));
#815=IFCRELDEFINESBYPROPERTIES('0UOzFgtm1GkRiSbT61EUY2',$,$,$,(#785),#814);
#816=IFCPROPERTYSINGLEVALUE('IsExternal',$,IFCBOOLEAN(.T.),$);
#817=IFCOPENINGELEMENT('0BXENcVFHVXQZTQpIVnVXY',$,'Opening opening-window-og-s1',$,$,#837,#828,$,.OPENING.);
#818=IFCCARTESIANPOINTLIST2D(((3.9999999999999996,-0.049999999999999989),(5.1999999999999993,-0.049999999999999989),(5.1999999999999993,0.45000000000000001),(3.9999999999999996,0.45000000000000001)));
#819=IFCINDEXEDPOLYCURVE(#818,(IFCLINEINDEX((1,2,3,4,1))),$);
#820=IFCARBITRARYCLOSEDPROFILEDEF(.AREA.,$,#819);
#821=IFCCARTESIANPOINT((0.,0.,0.90000000000000002));
#822=IFCDIRECTION((0.,0.,1.));
#823=IFCDIRECTION((1.,0.,0.));
#824=IFCAXIS2PLACEMENT3D(#821,#822,#823);
#825=IFCDIRECTION((0.,0.,1.));
#826=IFCEXTRUDEDAREASOLID(#820,#824,#825,1.3999999999999999);
#827=IFCSHAPEREPRESENTATION(#12,'Body','SweptSolid',(#826));
#828=IFCPRODUCTDEFINITIONSHAPE($,$,(#827));
#832=IFCRELVOIDSELEMENT('06XZH5wpHGjxnfZz2FrhpJ',$,$,$,#492,#817);
#833=IFCCARTESIANPOINT((0.,0.,0.));
#834=IFCDIRECTION((0.,0.,1.));
#835=IFCDIRECTION((1.,0.,0.));
#836=IFCAXIS2PLACEMENT3D(#833,#834,#835);
#837=IFCLOCALPLACEMENT(#514,#836);
#838=IFCWINDOW('1VVbWh9ePVIvi7j9hAS4vG',$,'OG1 south window 1',$,$,#856,#851,$,1.3999999999999999,1.2,$,$,$);
#844=IFCCARTESIANPOINT((0.,0.,0.));
#845=IFCDIRECTION((1.,0.,0.));
#846=IFCDIRECTION((0.,1.,0.));
#847=IFCDIRECTION((0.,0.,1.));
#848=IFCCARTESIANTRANSFORMATIONOPERATOR3D(#845,#846,#844,1.,#847);
#849=IFCMAPPEDITEM(#192,#848);
#850=IFCSHAPEREPRESENTATION(#12,'Body','MappedRepresentation',(#849));
#851=IFCPRODUCTDEFINITIONSHAPE($,$,(#850));
#852=IFCCARTESIANPOINT((4.,0.,0.90000000000000036));
#853=IFCDIRECTION((0.,0.,1.));
#854=IFCDIRECTION((1.,0.,0.));
#855=IFCAXIS2PLACEMENT3D(#852,#853,#854);
#856=IFCLOCALPLACEMENT(#51,#855);
#857=IFCPROPERTYSET('3aRH81hEXJogNWOVS5928o',$,'ReconstructionEvidence',$,(#859,#860,#861,#862,#863,#864));
#858=IFCRELDEFINESBYPROPERTIES('0wevUl9QPNNefDceHRrUko',$,$,$,(#838),#857);
#859=IFCPROPERTYSINGLEVALUE('ProductId',$,IFCIDENTIFIER('window-og-s1'),$);
#860=IFCPROPERTYSINGLEVALUE('Category',$,IFCLABEL('window'),$);
#861=IFCPROPERTYSINGLEVALUE('ClassificationBasis',$,IFCLABEL('authored'),$);
#862=IFCPROPERTYSINGLEVALUE('EvidenceBasis',$,IFCLABEL('measured'),$);
#863=IFCPROPERTYSINGLEVALUE('Confidence',$,IFCLABEL('medium'),$);
#864=IFCPROPERTYSINGLEVALUE('Source',$,IFCTEXT('Golden example facade photo (invented)'),$);
#865=IFCRELFILLSELEMENT('1NoRZHeovTAfaXx$NiKzzC',$,$,$,#817,#838);
#866=IFCPROPERTYSET('1CgSaBdzXHcvPqnIrtFWBX',$,'Pset_WindowCommon',$,(#868));
#867=IFCRELDEFINESBYPROPERTIES('2khz8dayPPi9n$uss7mSFb',$,$,$,(#838),#866);
#868=IFCPROPERTYSINGLEVALUE('IsExternal',$,IFCBOOLEAN(.T.),$);
#869=IFCOPENINGELEMENT('3YgbJD2WvPEBx0WEVKEZpe',$,'Opening opening-window-eg-s2',$,$,#889,#880,$,.OPENING.);
#870=IFCCARTESIANPOINTLIST2D(((7.5,-0.049999999999999989),(8.6999999999999993,-0.049999999999999989),(8.6999999999999993,0.45000000000000001),(7.5,0.45000000000000001)));
#871=IFCINDEXEDPOLYCURVE(#870,(IFCLINEINDEX((1,2,3,4,1))),$);
#872=IFCARBITRARYCLOSEDPROFILEDEF(.AREA.,$,#871);
#873=IFCCARTESIANPOINT((0.,0.,0.90000000000000002));
#874=IFCDIRECTION((0.,0.,1.));
#875=IFCDIRECTION((1.,0.,0.));
#876=IFCAXIS2PLACEMENT3D(#873,#874,#875);
#877=IFCDIRECTION((0.,0.,1.));
#878=IFCEXTRUDEDAREASOLID(#872,#876,#877,1.3999999999999999);
#879=IFCSHAPEREPRESENTATION(#12,'Body','SweptSolid',(#878));
#880=IFCPRODUCTDEFINITIONSHAPE($,$,(#879));
#884=IFCRELVOIDSELEMENT('02DKBV9i9UPRSWQsZqQRKT',$,$,$,#358,#869);
#885=IFCCARTESIANPOINT((0.,0.,0.));
#886=IFCDIRECTION((0.,0.,1.));
#887=IFCDIRECTION((1.,0.,0.));
#888=IFCAXIS2PLACEMENT3D(#885,#886,#887);
#889=IFCLOCALPLACEMENT(#381,#888);
#890=IFCWINDOW('20uUmZlh9KaPwzT1vQwHou',$,'EG south window 2',$,$,#908,#903,$,1.3999999999999999,1.2,$,$,$);
#896=IFCCARTESIANPOINT((0.,0.,0.));
#897=IFCDIRECTION((1.,0.,0.));
#898=IFCDIRECTION((0.,1.,0.));
#899=IFCDIRECTION((0.,0.,1.));
#900=IFCCARTESIANTRANSFORMATIONOPERATOR3D(#897,#898,#896,1.,#899);
#901=IFCMAPPEDITEM(#192,#900);
#902=IFCSHAPEREPRESENTATION(#12,'Body','MappedRepresentation',(#901));
#903=IFCPRODUCTDEFINITIONSHAPE($,$,(#902));
#904=IFCCARTESIANPOINT((7.5,0.,0.90000000000000002));
#905=IFCDIRECTION((0.,0.,1.));
#906=IFCDIRECTION((1.,0.,0.));
#907=IFCAXIS2PLACEMENT3D(#904,#905,#906);
#908=IFCLOCALPLACEMENT(#46,#907);
#909=IFCPROPERTYSET('07tBGrCPzVB9Vta7DYAEPF',$,'ReconstructionEvidence',$,(#911,#912,#913,#914,#915,#916));
#910=IFCRELDEFINESBYPROPERTIES('32B77SxeHO$fb2KN1AbenE',$,$,$,(#890),#909);
#911=IFCPROPERTYSINGLEVALUE('ProductId',$,IFCIDENTIFIER('window-eg-s2'),$);
#912=IFCPROPERTYSINGLEVALUE('Category',$,IFCLABEL('window'),$);
#913=IFCPROPERTYSINGLEVALUE('ClassificationBasis',$,IFCLABEL('authored'),$);
#914=IFCPROPERTYSINGLEVALUE('EvidenceBasis',$,IFCLABEL('measured'),$);
#915=IFCPROPERTYSINGLEVALUE('Confidence',$,IFCLABEL('medium'),$);
#916=IFCPROPERTYSINGLEVALUE('Source',$,IFCTEXT('Golden example facade photo (invented)'),$);
#917=IFCRELFILLSELEMENT('0xIvYJMuTK1x9xnWrWMDU8',$,$,$,#869,#890);
#918=IFCPROPERTYSET('3reuJ7m0vHmQAnHjW$Wq$p',$,'Pset_WindowCommon',$,(#920));
#919=IFCRELDEFINESBYPROPERTIES('0FhdQlZ5PGK87qT7McuPw9',$,$,$,(#890),#918);
#920=IFCPROPERTYSINGLEVALUE('IsExternal',$,IFCBOOLEAN(.T.),$);
#921=IFCOPENINGELEMENT('3Yj_TmHeDVb8QRnxk4L65J',$,'Opening opening-window-og-s2',$,$,#941,#932,$,.OPENING.);
#922=IFCCARTESIANPOINTLIST2D(((7.5,-0.049999999999999989),(8.6999999999999993,-0.049999999999999989),(8.6999999999999993,0.45000000000000001),(7.5,0.45000000000000001)));
#923=IFCINDEXEDPOLYCURVE(#922,(IFCLINEINDEX((1,2,3,4,1))),$);
#924=IFCARBITRARYCLOSEDPROFILEDEF(.AREA.,$,#923);
#925=IFCCARTESIANPOINT((0.,0.,0.90000000000000002));
#926=IFCDIRECTION((0.,0.,1.));
#927=IFCDIRECTION((1.,0.,0.));
#928=IFCAXIS2PLACEMENT3D(#925,#926,#927);
#929=IFCDIRECTION((0.,0.,1.));
#930=IFCEXTRUDEDAREASOLID(#924,#928,#929,1.3999999999999999);
#931=IFCSHAPEREPRESENTATION(#12,'Body','SweptSolid',(#930));
#932=IFCPRODUCTDEFINITIONSHAPE($,$,(#931));
#936=IFCRELVOIDSELEMENT('1a8cZcYnvKEP0fUvy_XtO9',$,$,$,#492,#921);
#937=IFCCARTESIANPOINT((0.,0.,0.));
#938=IFCDIRECTION((0.,0.,1.));
#939=IFCDIRECTION((1.,0.,0.));
#940=IFCAXIS2PLACEMENT3D(#937,#938,#939);
#941=IFCLOCALPLACEMENT(#514,#940);
#942=IFCWINDOW('35CNKUqcHM18MwKLl9Ps1W',$,'OG1 south window 2',$,$,#960,#955,$,1.3999999999999999,1.2,$,$,$);
#948=IFCCARTESIANPOINT((0.,0.,0.));
#949=IFCDIRECTION((1.,0.,0.));
#950=IFCDIRECTION((0.,1.,0.));
#951=IFCDIRECTION((0.,0.,1.));
#952=IFCCARTESIANTRANSFORMATIONOPERATOR3D(#949,#950,#948,1.,#951);
#953=IFCMAPPEDITEM(#192,#952);
#954=IFCSHAPEREPRESENTATION(#12,'Body','MappedRepresentation',(#953));
#955=IFCPRODUCTDEFINITIONSHAPE($,$,(#954));
#956=IFCCARTESIANPOINT((7.5,0.,0.90000000000000036));
#957=IFCDIRECTION((0.,0.,1.));
#958=IFCDIRECTION((1.,0.,0.));
#959=IFCAXIS2PLACEMENT3D(#956,#957,#958);
#960=IFCLOCALPLACEMENT(#51,#959);
#961=IFCPROPERTYSET('3_PRJXsvPQXQQ2FRPzFUia',$,'ReconstructionEvidence',$,(#963,#964,#965,#966,#967,#968));
#962=IFCRELDEFINESBYPROPERTIES('15E$GM6z5NeAfQIAMJUBkj',$,$,$,(#942),#961);
#963=IFCPROPERTYSINGLEVALUE('ProductId',$,IFCIDENTIFIER('window-og-s2'),$);
#964=IFCPROPERTYSINGLEVALUE('Category',$,IFCLABEL('window'),$);
#965=IFCPROPERTYSINGLEVALUE('ClassificationBasis',$,IFCLABEL('authored'),$);
#966=IFCPROPERTYSINGLEVALUE('EvidenceBasis',$,IFCLABEL('measured'),$);
#967=IFCPROPERTYSINGLEVALUE('Confidence',$,IFCLABEL('medium'),$);
#968=IFCPROPERTYSINGLEVALUE('Source',$,IFCTEXT('Golden example facade photo (invented)'),$);
#969=IFCRELFILLSELEMENT('14TAwhjWjMUeMFqFTVByyh',$,$,$,#921,#942);
#970=IFCPROPERTYSET('0xnfdbmI5JxARPLS_WkEUK',$,'Pset_WindowCommon',$,(#972));
#971=IFCRELDEFINESBYPROPERTIES('0ABVKtG4HI4gicIT1Tyn5S',$,$,$,(#942),#970);
#972=IFCPROPERTYSINGLEVALUE('IsExternal',$,IFCBOOLEAN(.T.),$);
#973=IFCSLAB('3IvrvCmzDHIfOUg697EYJR',$,'EG floor slab',$,$,#995,#989,$,$);
#979=IFCCARTESIANPOINTLIST2D(((0.,0.),(10.,0.),(10.,6.),(0.,6.)));
#980=IFCINDEXEDPOLYCURVE(#979,(IFCLINEINDEX((1,2,3,4,1))),$);
#981=IFCARBITRARYCLOSEDPROFILEDEF(.AREA.,$,#980);
#982=IFCCARTESIANPOINT((0.,0.,0.));
#983=IFCDIRECTION((0.,0.,1.));
#984=IFCDIRECTION((1.,0.,0.));
#985=IFCAXIS2PLACEMENT3D(#982,#983,#984);
#986=IFCDIRECTION((0.,0.,1.));
#987=IFCEXTRUDEDAREASOLID(#981,#985,#986,0.25);
#988=IFCSHAPEREPRESENTATION(#12,'Body','SweptSolid',(#987));
#989=IFCPRODUCTDEFINITIONSHAPE($,$,(#988));
#990=IFCRELDEFINESBYTYPE('0IbtYECjHR3efN9p5nhDkG',$,$,$,(#973,#1007),#58);
#991=IFCCARTESIANPOINT((0.,0.,-0.25));
#992=IFCDIRECTION((0.,0.,1.));
#993=IFCDIRECTION((1.,0.,0.));
#994=IFCAXIS2PLACEMENT3D(#991,#992,#993);
#995=IFCLOCALPLACEMENT(#46,#994);
#996=IFCPROPERTYSET('2EkWcll1HGROx8r_4cqu14',$,'Pset_SlabCommon',$,(#998));
#997=IFCRELDEFINESBYPROPERTIES('1dR1kIHcPJYROhV5ZkfVHo',$,$,$,(#973),#996);
#998=IFCPROPERTYSINGLEVALUE('IsExternal',$,IFCBOOLEAN(.T.),$);
#999=IFCPROPERTYSET('0EUiLrjNPVj9ABWf4e0uEj',$,'ReconstructionEvidence',$,(#1001,#1002,#1003,#1004,#1005,#1006));
#1000=IFCRELDEFINESBYPROPERTIES('2ghlw0KW1R0AiIbpMnBi$q',$,$,$,(#973),#999);
#1001=IFCPROPERTYSINGLEVALUE('ProductId',$,IFCIDENTIFIER('slab-eg'),$);
#1002=IFCPROPERTYSINGLEVALUE('Category',$,IFCLABEL('slab'),$);
#1003=IFCPROPERTYSINGLEVALUE('ClassificationBasis',$,IFCLABEL('authored'),$);
#1004=IFCPROPERTYSINGLEVALUE('EvidenceBasis',$,IFCLABEL('inferred'),$);
#1005=IFCPROPERTYSINGLEVALUE('Confidence',$,IFCLABEL('medium'),$);
#1006=IFCPROPERTYSINGLEVALUE('Source',$,IFCTEXT('Slab thickness from typical construction; levels from section (invented)'),$);
#1007=IFCSLAB('1Iq4qjAAnH5uHMMmmB7qJE',$,'OG1 floor slab',$,$,#1030,#1025,$,$);
#1013=IFCCARTESIANPOINTLIST2D(((0.,0.),(10.,0.),(10.,6.),(0.,6.)));
#1014=IFCINDEXEDPOLYCURVE(#1013,(IFCLINEINDEX((1,2,3,4,1))),$);
#1015=IFCCARTESIANPOINTLIST2D(((0.5,4.5999999999999996),(5.5599999999999996,4.5999999999999996),(5.5599999999999996,5.5999999999999996),(0.5,5.5999999999999996)));
#1016=IFCINDEXEDPOLYCURVE(#1015,(IFCLINEINDEX((1,2,3,4,1))),$);
#1017=IFCARBITRARYPROFILEDEFWITHVOIDS(.AREA.,$,#1014,(#1016));
#1018=IFCCARTESIANPOINT((0.,0.,0.));
#1019=IFCDIRECTION((0.,0.,1.));
#1020=IFCDIRECTION((1.,0.,0.));
#1021=IFCAXIS2PLACEMENT3D(#1018,#1019,#1020);
#1022=IFCDIRECTION((0.,0.,1.));
#1023=IFCEXTRUDEDAREASOLID(#1017,#1021,#1022,0.25);
#1024=IFCSHAPEREPRESENTATION(#12,'Body','SweptSolid',(#1023));
#1025=IFCPRODUCTDEFINITIONSHAPE($,$,(#1024));
#1026=IFCCARTESIANPOINT((0.,0.,-0.25));
#1027=IFCDIRECTION((0.,0.,1.));
#1028=IFCDIRECTION((1.,0.,0.));
#1029=IFCAXIS2PLACEMENT3D(#1026,#1027,#1028);
#1030=IFCLOCALPLACEMENT(#51,#1029);
#1031=IFCPROPERTYSET('1er5uwKYnRW8pxv_bwqXd5',$,'Pset_SlabCommon',$,(#1033));
#1032=IFCRELDEFINESBYPROPERTIES('1g3Fgsd2fLp9owOpX2qqde',$,$,$,(#1007),#1031);
#1033=IFCPROPERTYSINGLEVALUE('IsExternal',$,IFCBOOLEAN(.F.),$);
#1034=IFCPROPERTYSET('3U1zTx_mrNAetYbyMQnwnT',$,'ReconstructionEvidence',$,(#1036,#1037,#1038,#1039,#1040,#1041));
#1035=IFCRELDEFINESBYPROPERTIES('3wWx76TEnG3uORDojh4ye6',$,$,$,(#1007),#1034);
#1036=IFCPROPERTYSINGLEVALUE('ProductId',$,IFCIDENTIFIER('slab-og'),$);
#1037=IFCPROPERTYSINGLEVALUE('Category',$,IFCLABEL('slab'),$);
#1038=IFCPROPERTYSINGLEVALUE('ClassificationBasis',$,IFCLABEL('authored'),$);
#1039=IFCPROPERTYSINGLEVALUE('EvidenceBasis',$,IFCLABEL('inferred'),$);
#1040=IFCPROPERTYSINGLEVALUE('Confidence',$,IFCLABEL('medium'),$);
#1041=IFCPROPERTYSINGLEVALUE('Source',$,IFCTEXT('Slab thickness from typical construction; levels from section (invented)'),$);
#1042=IFCROOF('1AI$Bj51bTjQomH3KPCtSj',$,'Flat roof',$,$,#1053,$,$,$);
#1048=IFCRELDEFINESBYTYPE('21fc5pMbPKrQLCcko8FRzX',$,$,$,(#1042),#62);
#1049=IFCCARTESIANPOINT((0.,0.,2.9500000000000002));
#1050=IFCDIRECTION((0.,0.,1.));
#1051=IFCDIRECTION((1.,0.,0.));
#1052=IFCAXIS2PLACEMENT3D(#1049,#1050,#1051);
#1053=IFCLOCALPLACEMENT(#51,#1052);
#1054=IFCPROPERTYSET('161CNAdxnVV8q6VRKijdU4',$,'ReconstructionEvidence',$,(#1056,#1057,#1058,#1059,#1060,#1061));
#1055=IFCRELDEFINESBYPROPERTIES('1OJQ_xxvrLGeJUMgQxOrBP',$,$,$,(#1042),#1054);
#1056=IFCPROPERTYSINGLEVALUE('ProductId',$,IFCIDENTIFIER('roof'),$);
#1057=IFCPROPERTYSINGLEVALUE('Category',$,IFCLABEL('roof'),$);
#1058=IFCPROPERTYSINGLEVALUE('ClassificationBasis',$,IFCLABEL('authored'),$);
#1059=IFCPROPERTYSINGLEVALUE('EvidenceBasis',$,IFCLABEL('inferred'),$);
#1060=IFCPROPERTYSINGLEVALUE('Confidence',$,IFCLABEL('medium'),$);
#1061=IFCPROPERTYSINGLEVALUE('Source',$,IFCTEXT('Golden example; invented geometry'),$);
#1062=IFCSLAB('2wpFcqI7zKQAjstZzWQtgn',$,'Roof slab',$,$,#1085,#1078,$,$);
#1068=IFCCARTESIANPOINTLIST2D(((0.,0.),(10.,0.),(10.,6.),(0.,6.)));
#1069=IFCINDEXEDPOLYCURVE(#1068,(IFCLINEINDEX((1,2,3,4,1))),$);
#1070=IFCARBITRARYCLOSEDPROFILEDEF(.AREA.,$,#1069);
#1071=IFCCARTESIANPOINT((0.,0.,0.));
#1072=IFCDIRECTION((0.,0.,1.));
#1073=IFCDIRECTION((1.,0.,0.));
#1074=IFCAXIS2PLACEMENT3D(#1071,#1072,#1073);
#1075=IFCDIRECTION((0.,0.,1.));
#1076=IFCEXTRUDEDAREASOLID(#1070,#1074,#1075,0.25);
#1077=IFCSHAPEREPRESENTATION(#12,'Body','SweptSolid',(#1076));
#1078=IFCPRODUCTDEFINITIONSHAPE($,$,(#1077));
#1079=IFCRELDEFINESBYTYPE('3d1rAEhOrRG9Bk6EkT7aLJ',$,$,$,(#1062),#61);
#1080=IFCRELAGGREGATES('1LO94BPOnHaQvLe0cuU36a',$,$,$,#1042,(#1062));
#1081=IFCCARTESIANPOINT((0.,0.,0.));
#1082=IFCDIRECTION((0.,0.,1.));
#1083=IFCDIRECTION((1.,0.,0.));
#1084=IFCAXIS2PLACEMENT3D(#1081,#1082,#1083);
#1085=IFCLOCALPLACEMENT(#1053,#1084);
#1086=IFCPROPERTYSET('3Qqk$1KZPT5QgnHENHUhjF',$,'ReconstructionEvidence',$,(#1088,#1089,#1090,#1091,#1092,#1093));
#1087=IFCRELDEFINESBYPROPERTIES('0pHAZQoTPGRRZ89IuuozDL',$,$,$,(#1062),#1086);
#1088=IFCPROPERTYSINGLEVALUE('ProductId',$,IFCIDENTIFIER('roof-slab'),$);
#1089=IFCPROPERTYSINGLEVALUE('Category',$,IFCLABEL('roof'),$);
#1090=IFCPROPERTYSINGLEVALUE('ClassificationBasis',$,IFCLABEL('authored'),$);
#1091=IFCPROPERTYSINGLEVALUE('EvidenceBasis',$,IFCLABEL('inferred'),$);
#1092=IFCPROPERTYSINGLEVALUE('Confidence',$,IFCLABEL('medium'),$);
#1093=IFCPROPERTYSINGLEVALUE('Source',$,IFCTEXT('Golden example; invented geometry'),$);
#1094=IFCCOLUMN('2Jpo6OW09NDhDGTP5F4nm8',$,'EG Saal column 1',$,$,#1113,#1108,$,$);
#1100=IFCRELDEFINESBYTYPE('3ewEDtDq5LMwfzsb448Siu',$,$,$,(#1094,#1122),#205);
#1101=IFCCARTESIANPOINT((0.,0.,0.));
#1102=IFCDIRECTION((1.,0.,0.));
#1103=IFCDIRECTION((0.,1.,0.));
#1104=IFCDIRECTION((0.,0.,1.));
#1105=IFCCARTESIANTRANSFORMATIONOPERATOR3D(#1102,#1103,#1101,1.,#1104);
#1106=IFCMAPPEDITEM(#210,#1105);
#1107=IFCSHAPEREPRESENTATION(#12,'Body','MappedRepresentation',(#1106));
#1108=IFCPRODUCTDEFINITIONSHAPE($,$,(#1107));
#1109=IFCCARTESIANPOINT((7.7300000000000004,1.3500000000000001,0.));
#1110=IFCDIRECTION((0.,0.,1.));
#1111=IFCDIRECTION((1.,0.,0.));
#1112=IFCAXIS2PLACEMENT3D(#1109,#1110,#1111);
#1113=IFCLOCALPLACEMENT(#46,#1112);
#1114=IFCPROPERTYSET('16TGyvQ8PGSB0PZTevTG3A',$,'ReconstructionEvidence',$,(#1116,#1117,#1118,#1119,#1120,#1121));
#1115=IFCRELDEFINESBYPROPERTIES('0i679tWfDRuwOr7uXT2usC',$,$,$,(#1094),#1114);
#1116=IFCPROPERTYSINGLEVALUE('ProductId',$,IFCIDENTIFIER('column-eg-1'),$);
#1117=IFCPROPERTYSINGLEVALUE('Category',$,IFCLABEL('column'),$);
#1118=IFCPROPERTYSINGLEVALUE('ClassificationBasis',$,IFCLABEL('authored'),$);
#1119=IFCPROPERTYSINGLEVALUE('EvidenceBasis',$,IFCLABEL('measured'),$);
#1120=IFCPROPERTYSINGLEVALUE('Confidence',$,IFCLABEL('high'),$);
#1121=IFCPROPERTYSINGLEVALUE('Source',$,IFCTEXT('Golden example plan EG (invented)'),$);
#1122=IFCCOLUMN('1mIQx21drMqv2Gj8zga5eC',$,'EG Saal column 2',$,$,#1140,#1135,$,$);
#1128=IFCCARTESIANPOINT((0.,0.,0.));
#1129=IFCDIRECTION((1.,0.,0.));
#1130=IFCDIRECTION((0.,1.,0.));
#1131=IFCDIRECTION((0.,0.,1.));
#1132=IFCCARTESIANTRANSFORMATIONOPERATOR3D(#1129,#1130,#1128,1.,#1131);
#1133=IFCMAPPEDITEM(#210,#1132);
#1134=IFCSHAPEREPRESENTATION(#12,'Body','MappedRepresentation',(#1133));
#1135=IFCPRODUCTDEFINITIONSHAPE($,$,(#1134));
#1136=IFCCARTESIANPOINT((7.7300000000000004,4.0499999999999998,0.));
#1137=IFCDIRECTION((0.,0.,1.));
#1138=IFCDIRECTION((1.,0.,0.));
#1139=IFCAXIS2PLACEMENT3D(#1136,#1137,#1138);
#1140=IFCLOCALPLACEMENT(#46,#1139);
#1141=IFCPROPERTYSET('0IsJhe5IHUqgX2llAJAfoe',$,'ReconstructionEvidence',$,(#1143,#1144,#1145,#1146,#1147,#1148));
#1142=IFCRELDEFINESBYPROPERTIES('0NV4J3XavN7BAiLCqGvd03',$,$,$,(#1122),#1141);
#1143=IFCPROPERTYSINGLEVALUE('ProductId',$,IFCIDENTIFIER('column-eg-2'),$);
#1144=IFCPROPERTYSINGLEVALUE('Category',$,IFCLABEL('column'),$);
#1145=IFCPROPERTYSINGLEVALUE('ClassificationBasis',$,IFCLABEL('authored'),$);
#1146=IFCPROPERTYSINGLEVALUE('EvidenceBasis',$,IFCLABEL('measured'),$);
#1147=IFCPROPERTYSINGLEVALUE('Confidence',$,IFCLABEL('high'),$);
#1148=IFCPROPERTYSINGLEVALUE('Source',$,IFCTEXT('Golden example plan EG (invented)'),$);
#1149=IFCBEAM('1re4DZLv9NuQz$qSnh5e99',$,'EG Saal beam',$,$,#1168,#1163,$,$);
#1155=IFCRELDEFINESBYTYPE('2pn1o6ikbIzPk8R1rToeln',$,$,$,(#1149),#221);
#1156=IFCCARTESIANPOINT((0.,0.,0.));
#1157=IFCDIRECTION((1.,0.,0.));
#1158=IFCDIRECTION((0.,1.,0.));
#1159=IFCDIRECTION((0.,0.,1.));
#1160=IFCCARTESIANTRANSFORMATIONOPERATOR3D(#1157,#1158,#1156,1.,#1159);
#1161=IFCMAPPEDITEM(#226,#1160);
#1162=IFCSHAPEREPRESENTATION(#12,'Body','MappedRepresentation',(#1161));
#1163=IFCPRODUCTDEFINITIONSHAPE($,$,(#1162));
#1164=IFCCARTESIANPOINT((7.7300000000000004,1.3500000000000001,2.6500000000000004));
#1165=IFCDIRECTION((0.,0.,1.));
#1166=IFCDIRECTION((1.,0.,0.));
#1167=IFCAXIS2PLACEMENT3D(#1164,#1165,#1166);
#1168=IFCLOCALPLACEMENT(#46,#1167);
#1169=IFCPROPERTYSET('3aLW4D3ELMwOMsK_jNNJF_',$,'ReconstructionEvidence',$,(#1171,#1172,#1173,#1174,#1175,#1176));
#1170=IFCRELDEFINESBYPROPERTIES('0bMlH_iqfKdxHnLZGcXn3b',$,$,$,(#1149),#1169);
#1171=IFCPROPERTYSINGLEVALUE('ProductId',$,IFCIDENTIFIER('beam-eg-1'),$);
#1172=IFCPROPERTYSINGLEVALUE('Category',$,IFCLABEL('beam'),$);
#1173=IFCPROPERTYSINGLEVALUE('ClassificationBasis',$,IFCLABEL('authored'),$);
#1174=IFCPROPERTYSINGLEVALUE('EvidenceBasis',$,IFCLABEL('inferred'),$);
#1175=IFCPROPERTYSINGLEVALUE('Confidence',$,IFCLABEL('medium'),$);
#1176=IFCPROPERTYSINGLEVALUE('Source',$,IFCTEXT('Golden example section (invented)'),$);
#1177=IFCSTAIR('24TbG5tPXR8ek00PVIKRjF',$,'Stair EG-OG1',$,$,#1188,$,$,$);
#1183=IFCRELDEFINESBYTYPE('0AVtGsmJfTngfoa$9mpxBM',$,$,$,(#1177),#239);
#1184=IFCCARTESIANPOINT((0.5,4.5999999999999996,0.));
#1185=IFCDIRECTION((0.,0.,1.));
#1186=IFCDIRECTION((1.,0.,0.));
#1187=IFCAXIS2PLACEMENT3D(#1184,#1185,#1186);
#1188=IFCLOCALPLACEMENT(#46,#1187);
#1189=IFCPROPERTYSET('2Us7XnbMPGseN7Y9Spz4LG',$,'ReconstructionEvidence',$,(#1191,#1192,#1193,#1194,#1195,#1196));
#1190=IFCRELDEFINESBYPROPERTIES('3tFujBTE5SpA83CNtyznpu',$,$,$,(#1177),#1189);
#1191=IFCPROPERTYSINGLEVALUE('ProductId',$,IFCIDENTIFIER('stair-1'),$);
#1192=IFCPROPERTYSINGLEVALUE('Category',$,IFCLABEL('stair'),$);
#1193=IFCPROPERTYSINGLEVALUE('ClassificationBasis',$,IFCLABEL('authored'),$);
#1194=IFCPROPERTYSINGLEVALUE('EvidenceBasis',$,IFCLABEL('measured'),$);
#1195=IFCPROPERTYSINGLEVALUE('Confidence',$,IFCLABEL('medium'),$);
#1196=IFCPROPERTYSINGLEVALUE('Source',$,IFCTEXT('Riser count from plan (invented)'),$);
#1197=IFCCARTESIANPOINTLIST2D(((0.,0.),(0.,0.17777777777777778),(0.26000000000000001,0.17777777777777778),(0.26000000000000001,0.35555555555555557),(0.52000000000000002,0.35555555555555557),(0.52000000000000002,0.53333333333333333),(0.78000000000000003,0.53333333333333333),(0.78000000000000003,0.71111111111111114),(1.04,0.71111111111111114),(1.04,0.88888888888888895),(1.3,0.88888888888888895),(1.3,1.0666666666666667),(1.5600000000000001,1.0666666666666667),(1.5600000000000001,1.2444444444444445),(1.8200000000000001,1.2444444444444445),(1.8200000000000001,1.4222222222222223),(2.0800000000000001,1.4222222222222223),(2.0800000000000001,1.2222222222222223),(0.20000000000000001,0.)));
#1198=IFCINDEXEDPOLYCURVE(#1197,(IFCLINEINDEX((1,2,3,4,5,6,7,8,9,10,11,12,13,14,15,16,17,18,19,1))),$);
#1199=IFCARBITRARYCLOSEDPROFILEDEF(.AREA.,$,#1198);
#1200=IFCCARTESIANPOINT((0.,0.,0.));
#1201=IFCDIRECTION((0.,-1.,0.));
#1202=IFCDIRECTION((1.,0.,0.));
#1203=IFCAXIS2PLACEMENT3D(#1200,#1201,#1202);
#1204=IFCDIRECTION((0.,0.,1.));
#1205=IFCEXTRUDEDAREASOLID(#1199,#1203,#1204,1.);
#1206=IFCSHAPEREPRESENTATION(#12,'Body','SweptSolid',(#1205));
#1207=IFCSTAIRFLIGHT('04M0PyLgnPXQnqbsqBLVjj',$,'Flight 1',$,$,#1219,#1213,$,$,$,$,$,.STRAIGHT.);
#1213=IFCPRODUCTDEFINITIONSHAPE($,$,(#1206));
#1214=IFCRELAGGREGATES('3yfmMcRuDRmxEuAqXCKUQB',$,$,$,#1177,(#1207,#1238,#1268,#1363));
#1215=IFCCARTESIANPOINT((0.,1.,0.));
#1216=IFCDIRECTION((0.,0.,1.));
#1217=IFCDIRECTION((1.,0.,0.));
#1218=IFCAXIS2PLACEMENT3D(#1215,#1216,#1217);
#1219=IFCLOCALPLACEMENT(#1188,#1218);
#1220=IFCPROPERTYSET('2L61oBPoPVbPijmWRZGrEw',$,'ReconstructionEvidence',$,(#1222,#1223,#1224,#1225,#1226,#1227));
#1221=IFCRELDEFINESBYPROPERTIES('1r9YoZNMrLzfIESdR4x1k_',$,$,$,(#1207),#1220);
#1222=IFCPROPERTYSINGLEVALUE('ProductId',$,IFCIDENTIFIER('stair-1-flight-1'),$);
#1223=IFCPROPERTYSINGLEVALUE('Category',$,IFCLABEL('stairflight'),$);
#1224=IFCPROPERTYSINGLEVALUE('ClassificationBasis',$,IFCLABEL('authored'),$);
#1225=IFCPROPERTYSINGLEVALUE('EvidenceBasis',$,IFCLABEL('inferred'),$);
#1226=IFCPROPERTYSINGLEVALUE('Confidence',$,IFCLABEL('medium'),$);
#1227=IFCPROPERTYSINGLEVALUE('Source',$,IFCTEXT('Golden example; invented geometry'),$);
#1228=IFCCARTESIANPOINTLIST2D(((0.,0.),(0.90000000000000002,0.),(0.90000000000000002,1.),(0.,1.)));
#1229=IFCINDEXEDPOLYCURVE(#1228,(IFCLINEINDEX((1,2,3,4,1))),$);
#1230=IFCARBITRARYCLOSEDPROFILEDEF(.AREA.,$,#1229);
#1231=IFCCARTESIANPOINT((0.,0.,-0.20000000000000001));
#1232=IFCDIRECTION((0.,0.,1.));
#1233=IFCDIRECTION((1.,0.,0.));
#1234=IFCAXIS2PLACEMENT3D(#1231,#1232,#1233);
#1235=IFCDIRECTION((0.,0.,1.));
#1236=IFCEXTRUDEDAREASOLID(#1230,#1234,#1235,0.20000000000000001);
#1237=IFCSHAPEREPRESENTATION(#12,'Body','SweptSolid',(#1236));
#1238=IFCSLAB('3hCK8MaqnHjuG2YKK6HEP5',$,'Half landing',$,$,#1249,#1244,$,.LANDING.);
#1244=IFCPRODUCTDEFINITIONSHAPE($,$,(#1237));
#1245=IFCCARTESIANPOINT((2.0800000000000001,0.,1.6000000000000001));
#1246=IFCDIRECTION((0.,0.,1.));
#1247=IFCDIRECTION((1.,0.,0.));
#1248=IFCAXIS2PLACEMENT3D(#1245,#1246,#1247);
#1249=IFCLOCALPLACEMENT(#1188,#1248);
#1250=IFCPROPERTYSET('1WtnYgzxjP2QyuZNJSTt$0',$,'ReconstructionEvidence',$,(#1252,#1253,#1254,#1255,#1256,#1257));
#1251=IFCRELDEFINESBYPROPERTIES('01JJrOu4XVnuLbKGHHo17s',$,$,$,(#1238),#1250);
#1252=IFCPROPERTYSINGLEVALUE('ProductId',$,IFCIDENTIFIER('stair-1-landing'),$);
#1253=IFCPROPERTYSINGLEVALUE('Category',$,IFCLABEL('slab'),$);
#1254=IFCPROPERTYSINGLEVALUE('ClassificationBasis',$,IFCLABEL('authored'),$);
#1255=IFCPROPERTYSINGLEVALUE('EvidenceBasis',$,IFCLABEL('inferred'),$);
#1256=IFCPROPERTYSINGLEVALUE('Confidence',$,IFCLABEL('medium'),$);
#1257=IFCPROPERTYSINGLEVALUE('Source',$,IFCTEXT('Golden example; invented geometry'),$);
#1258=IFCCARTESIANPOINTLIST2D(((0.,0.),(0.,0.17777777777777778),(0.26000000000000001,0.17777777777777778),(0.26000000000000001,0.35555555555555557),(0.52000000000000002,0.35555555555555557),(0.52000000000000002,0.53333333333333333),(0.78000000000000003,0.53333333333333333),(0.78000000000000003,0.71111111111111114),(1.04,0.71111111111111114),(1.04,0.88888888888888895),(1.3,0.88888888888888895),(1.3,1.0666666666666667),(1.5600000000000001,1.0666666666666667),(1.5600000000000001,1.2444444444444445),(1.8200000000000001,1.2444444444444445),(1.8200000000000001,1.4222222222222223),(2.0800000000000001,1.4222222222222223),(2.0800000000000001,1.2222222222222223),(0.20000000000000001,0.)));
#1259=IFCINDEXEDPOLYCURVE(#1258,(IFCLINEINDEX((1,2,3,4,5,6,7,8,9,10,11,12,13,14,15,16,17,18,19,1))),$);
#1260=IFCARBITRARYCLOSEDPROFILEDEF(.AREA.,$,#1259);
#1261=IFCCARTESIANPOINT((0.,0.,0.));
#1262=IFCDIRECTION((0.,-1.,0.));
#1263=IFCDIRECTION((1.,0.,0.));
#1264=IFCAXIS2PLACEMENT3D(#1261,#1262,#1263);
#1265=IFCDIRECTION((0.,0.,1.));
#1266=IFCEXTRUDEDAREASOLID(#1260,#1264,#1265,1.);
#1267=IFCSHAPEREPRESENTATION(#12,'Body','SweptSolid',(#1266));
#1268=IFCSTAIRFLIGHT('2xzN1ZzaPVyR9rDBVqVIEP',$,'Flight 2',$,$,#1279,#1274,$,$,$,$,$,.STRAIGHT.);
#1274=IFCPRODUCTDEFINITIONSHAPE($,$,(#1267));
#1275=IFCCARTESIANPOINT((2.98,1.,1.6000000000000001));
#1276=IFCDIRECTION((0.,0.,1.));
#1277=IFCDIRECTION((1.,0.,0.));
#1278=IFCAXIS2PLACEMENT3D(#1275,#1276,#1277);
#1279=IFCLOCALPLACEMENT(#1188,#1278);
#1280=IFCPROPERTYSET('2yZwgXCADI7OBcfuwkfbgM',$,'ReconstructionEvidence',$,(#1282,#1283,#1284,#1285,#1286,#1287));
#1281=IFCRELDEFINESBYPROPERTIES('3kWoKW4pfIVOKqC4TRkVhE',$,$,$,(#1268),#1280);
#1282=IFCPROPERTYSINGLEVALUE('ProductId',$,IFCIDENTIFIER('stair-1-flight-2'),$);
#1283=IFCPROPERTYSINGLEVALUE('Category',$,IFCLABEL('stairflight'),$);
#1284=IFCPROPERTYSINGLEVALUE('ClassificationBasis',$,IFCLABEL('authored'),$);
#1285=IFCPROPERTYSINGLEVALUE('EvidenceBasis',$,IFCLABEL('inferred'),$);
#1286=IFCPROPERTYSINGLEVALUE('Confidence',$,IFCLABEL('medium'),$);
#1287=IFCPROPERTYSINGLEVALUE('Source',$,IFCTEXT('Golden example; invented geometry'),$);
#1288=IFCCARTESIANPOINTLIST3D(((0.,0.,1.0777777777777777),(0.,0.,1.1277777777777778),(0.,0.050000000000000003,1.0777777777777777),(0.,0.050000000000000003,1.1277777777777778),(2.0800000000000001,0.,2.5),(2.0800000000000001,0.,2.5499999999999998),(2.0800000000000001,0.050000000000000003,2.5),(2.0800000000000001,0.050000000000000003,2.5499999999999998),(0.32666666666666666,0.0050000000000000001,0.41481481481481486),(0.32666666666666666,0.0050000000000000001,1.3148148148148149),(0.32666666666666666,0.045000000000000005,0.41481481481481486),(0.32666666666666666,0.045000000000000005,1.3148148148148149),(0.3666666666666667,0.0050000000000000001,0.41481481481481486),(0.3666666666666667,0.0050000000000000001,1.3148148148148149),(0.3666666666666667,0.045000000000000005,0.41481481481481486),(0.3666666666666667,0.045000000000000005,1.3148148148148149),(1.02,0.0050000000000000001,0.88888888888888895),(1.02,0.0050000000000000001,1.788888888888889),(1.02,0.045000000000000005,0.88888888888888895),(1.02,0.045000000000000005,1.788888888888889),(1.0600000000000001,0.0050000000000000001,0.88888888888888895),(1.0600000000000001,0.0050000000000000001,1.788888888888889),(1.0600000000000001,0.045000000000000005,0.88888888888888895),(1.0600000000000001,0.045000000000000005,1.788888888888889),(1.7133333333333334,0.0050000000000000001,1.3629629629629632),(1.7133333333333334,0.0050000000000000001,2.2629629629629631),(1.7133333333333334,0.045000000000000005,1.3629629629629632),(1.7133333333333334,0.045000000000000005,2.2629629629629631),(1.7533333333333334,0.0050000000000000001,1.3629629629629632),(1.7533333333333334,0.0050000000000000001,2.2629629629629631),(1.7533333333333334,0.045000000000000005,1.3629629629629632),(1.7533333333333334,0.045000000000000005,2.2629629629629631),(2.0800000000000001,0.,2.5),(2.0800000000000001,0.,2.5499999999999998),(2.0800000000000001,0.050000000000000003,2.5),(2.0800000000000001,0.050000000000000003,2.5499999999999998),(2.98,0.,2.5),(2.98,0.,2.5499999999999998),(2.98,0.050000000000000003,2.5),(2.98,0.050000000000000003,2.5499999999999998),(2.21,0.0050000000000000001,1.6000000000000001),(2.21,0.0050000000000000001,2.5),(2.21,0.045000000000000005,1.6000000000000001),(2.21,0.045000000000000005,2.5),(2.25,0.0050000000000000001,1.6000000000000001),(2.25,0.0050000000000000001,2.5),(2.25,0.045000000000000005,1.6000000000000001),(2.25,0.045000000000000005,2.5),(2.5100000000000002,0.0050000000000000001,1.6000000000000001),(2.5100000000000002,0.0050000000000000001,2.5),(2.5100000000000002,0.045000000000000005,1.6000000000000001),(2.5100000000000002,0.045000000000000005,2.5),(2.5500000000000003,0.0050000000000000001,1.6000000000000001),(2.5500000000000003,0.0050000000000000001,2.5),(2.5500000000000003,0.045000000000000005,1.6000000000000001),(2.5500000000000003,0.045000000000000005,2.5),(2.8100000000000001,0.0050000000000000001,1.6000000000000001),(2.8100000000000001,0.0050000000000000001,2.5),(2.8100000000000001,0.045000000000000005,1.6000000000000001),(2.8100000000000001,0.045000000000000005,2.5),(2.8500000000000001,0.0050000000000000001,1.6000000000000001),(2.8500000000000001,0.0050000000000000001,2.5),(2.8500000000000001,0.045000000000000005,1.6000000000000001),(2.8500000000000001,0.045000000000000005,2.5),(2.98,0.,2.5),(2.98,0.,2.5499999999999998),(2.98,0.050000000000000003,2.5),(2.98,0.050000000000000003,2.5499999999999998),(5.0600000000000005,0.,4.1000000000000005),(5.0600000000000005,0.,4.1500000000000004),(5.0600000000000005,0.050000000000000003,4.1000000000000005),(5.0600000000000005,0.050000000000000003,4.1500000000000004),(3.3066666666666666,0.0050000000000000001,1.8666666666666667),(3.3066666666666666,0.0050000000000000001,2.7666666666666666),(3.3066666666666666,0.045000000000000005,1.8666666666666667),(3.3066666666666666,0.045000000000000005,2.7666666666666666),(3.3466666666666667,0.0050000000000000001,1.8666666666666667),(3.3466666666666667,0.0050000000000000001,2.7666666666666666),(3.3466666666666667,0.045000000000000005,1.8666666666666667),(3.3466666666666667,0.045000000000000005,2.7666666666666666),(4.0000000000000009,0.0050000000000000001,2.4000000000000004),(4.0000000000000009,0.0050000000000000001,3.3000000000000003),(4.0000000000000009,0.045000000000000005,2.4000000000000004),(4.0000000000000009,0.045000000000000005,3.3000000000000003),(4.04,0.0050000000000000001,2.4000000000000004),(4.04,0.0050000000000000001,3.3000000000000003),(4.04,0.045000000000000005,2.4000000000000004),(4.04,0.045000000000000005,3.3000000000000003),(4.6933333333333342,0.0050000000000000001,2.9333333333333336),(4.6933333333333342,0.0050000000000000001,3.8333333333333335),(4.6933333333333342,0.045000000000000005,2.9333333333333336),(4.6933333333333342,0.045000000000000005,3.8333333333333335),(4.7333333333333334,0.0050000000000000001,2.9333333333333336),(4.7333333333333334,0.0050000000000000001,3.8333333333333335),(4.7333333333333334,0.045000000000000005,2.9333333333333336),(4.7333333333333334,0.045000000000000005,3.8333333333333335)));
#1289=IFCINDEXEDPOLYGONALFACE((1,3,4,2));
#1290=IFCINDEXEDPOLYGONALFACE((5,6,8,7));
#1291=IFCINDEXEDPOLYGONALFACE((1,2,6,5));
#1292=IFCINDEXEDPOLYGONALFACE((3,7,8,4));
#1293=IFCINDEXEDPOLYGONALFACE((2,4,8,6));
#1294=IFCINDEXEDPOLYGONALFACE((1,5,7,3));
#1295=IFCINDEXEDPOLYGONALFACE((9,11,12,10));
#1296=IFCINDEXEDPOLYGONALFACE((13,14,16,15));
#1297=IFCINDEXEDPOLYGONALFACE((9,10,14,13));
#1298=IFCINDEXEDPOLYGONALFACE((11,15,16,12));
#1299=IFCINDEXEDPOLYGONALFACE((10,12,16,14));
#1300=IFCINDEXEDPOLYGONALFACE((9,13,15,11));
#1301=IFCINDEXEDPOLYGONALFACE((17,19,20,18));
#1302=IFCINDEXEDPOLYGONALFACE((21,22,24,23));
#1303=IFCINDEXEDPOLYGONALFACE((17,18,22,21));
#1304=IFCINDEXEDPOLYGONALFACE((19,23,24,20));
#1305=IFCINDEXEDPOLYGONALFACE((18,20,24,22));
#1306=IFCINDEXEDPOLYGONALFACE((17,21,23,19));
#1307=IFCINDEXEDPOLYGONALFACE((25,27,28,26));
#1308=IFCINDEXEDPOLYGONALFACE((29,30,32,31));
#1309=IFCINDEXEDPOLYGONALFACE((25,26,30,29));
#1310=IFCINDEXEDPOLYGONALFACE((27,31,32,28));
#1311=IFCINDEXEDPOLYGONALFACE((26,28,32,30));
#1312=IFCINDEXEDPOLYGONALFACE((25,29,31,27));
#1313=IFCINDEXEDPOLYGONALFACE((33,35,36,34));
#1314=IFCINDEXEDPOLYGONALFACE((37,38,40,39));
#1315=IFCINDEXEDPOLYGONALFACE((33,34,38,37));
#1316=IFCINDEXEDPOLYGONALFACE((35,39,40,36));
#1317=IFCINDEXEDPOLYGONALFACE((34,36,40,38));
#1318=IFCINDEXEDPOLYGONALFACE((33,37,39,35));
#1319=IFCINDEXEDPOLYGONALFACE((41,43,44,42));
#1320=IFCINDEXEDPOLYGONALFACE((45,46,48,47));
#1321=IFCINDEXEDPOLYGONALFACE((41,42,46,45));
#1322=IFCINDEXEDPOLYGONALFACE((43,47,48,44));
#1323=IFCINDEXEDPOLYGONALFACE((42,44,48,46));
#1324=IFCINDEXEDPOLYGONALFACE((41,45,47,43));
#1325=IFCINDEXEDPOLYGONALFACE((49,51,52,50));
#1326=IFCINDEXEDPOLYGONALFACE((53,54,56,55));
#1327=IFCINDEXEDPOLYGONALFACE((49,50,54,53));
#1328=IFCINDEXEDPOLYGONALFACE((51,55,56,52));
#1329=IFCINDEXEDPOLYGONALFACE((50,52,56,54));
#1330=IFCINDEXEDPOLYGONALFACE((49,53,55,51));
#1331=IFCINDEXEDPOLYGONALFACE((57,59,60,58));
#1332=IFCINDEXEDPOLYGONALFACE((61,62,64,63));
#1333=IFCINDEXEDPOLYGONALFACE((57,58,62,61));
#1334=IFCINDEXEDPOLYGONALFACE((59,63,64,60));
#1335=IFCINDEXEDPOLYGONALFACE((58,60,64,62));
#1336=IFCINDEXEDPOLYGONALFACE((57,61,63,59));
#1337=IFCINDEXEDPOLYGONALFACE((65,67,68,66));
#1338=IFCINDEXEDPOLYGONALFACE((69,70,72,71));
#1339=IFCINDEXEDPOLYGONALFACE((65,66,70,69));
#1340=IFCINDEXEDPOLYGONALFACE((67,71,72,68));
#1341=IFCINDEXEDPOLYGONALFACE((66,68,72,70));
#1342=IFCINDEXEDPOLYGONALFACE((65,69,71,67));
#1343=IFCINDEXEDPOLYGONALFACE((73,75,76,74));
#1344=IFCINDEXEDPOLYGONALFACE((77,78,80,79));
#1345=IFCINDEXEDPOLYGONALFACE((73,74,78,77));
#1346=IFCINDEXEDPOLYGONALFACE((75,79,80,76));
#1347=IFCINDEXEDPOLYGONALFACE((74,76,80,78));
#1348=IFCINDEXEDPOLYGONALFACE((73,77,79,75));
#1349=IFCINDEXEDPOLYGONALFACE((81,83,84,82));
#1350=IFCINDEXEDPOLYGONALFACE((85,86,88,87));
#1351=IFCINDEXEDPOLYGONALFACE((81,82,86,85));
#1352=IFCINDEXEDPOLYGONALFACE((83,87,88,84));
#1353=IFCINDEXEDPOLYGONALFACE((82,84,88,86));
#1354=IFCINDEXEDPOLYGONALFACE((81,85,87,83));
#1355=IFCINDEXEDPOLYGONALFACE((89,91,92,90));
#1356=IFCINDEXEDPOLYGONALFACE((93,94,96,95));
#1357=IFCINDEXEDPOLYGONALFACE((89,90,94,93));
#1358=IFCINDEXEDPOLYGONALFACE((91,95,96,92));
#1359=IFCINDEXEDPOLYGONALFACE((90,92,96,94));
#1360=IFCINDEXEDPOLYGONALFACE((89,93,95,91));
#1361=IFCPOLYGONALFACESET(#1288,$,(#1289,#1290,#1291,#1292,#1293,#1294,#1295,#1296,#1297,#1298,#1299,#1300,#1301,#1302,#1303,#1304,#1305,#1306,#1307,#1308,#1309,#1310,#1311,#1312,#1313,#1314,#1315,#1316,#1317,#1318,#1319,#1320,#1321,#1322,#1323,#1324,#1325,#1326,#1327,#1328,#1329,#1330,#1331,#1332,#1333,#1334,#1335,#1336,#1337,#1338,#1339,#1340,#1341,#1342,#1343,#1344,#1345,#1346,#1347,#1348,#1349,#1350,#1351,#1352,#1353,#1354,#1355,#1356,#1357,#1358,#1359,#1360),$);
#1362=IFCSHAPEREPRESENTATION(#12,'Body','Tessellation',(#1361));
#1363=IFCRAILING('1xoKYs31XGGwEoCz7zzxQo',$,'Stair railing',$,$,#1376,#1369,$,.BALUSTRADE.);
#1369=IFCPRODUCTDEFINITIONSHAPE($,$,(#1362));
#1370=IFCMATERIAL('Steel, painted',$,'steel');
#1371=IFCRELASSOCIATESMATERIAL('0nDXDfhwrKt9873nHSDKTn',$,$,$,(#1363),#1370);
#1372=IFCCARTESIANPOINT((0.,0.,0.));
#1373=IFCDIRECTION((0.,0.,1.));
#1374=IFCDIRECTION((1.,0.,0.));
#1375=IFCAXIS2PLACEMENT3D(#1372,#1373,#1374);
#1376=IFCLOCALPLACEMENT(#1188,#1375);
#1377=IFCPROPERTYSET('0x875zy5PKuu8gKM0mFpWY',$,'ReconstructionEvidence',$,(#1379,#1380,#1381,#1382,#1383,#1384));
#1378=IFCRELDEFINESBYPROPERTIES('0p6XWUMMTTw8rF_DAyxpDX',$,$,$,(#1363),#1377);
#1379=IFCPROPERTYSINGLEVALUE('ProductId',$,IFCIDENTIFIER('stair-1-railing'),$);
#1380=IFCPROPERTYSINGLEVALUE('Category',$,IFCLABEL('railing'),$);
#1381=IFCPROPERTYSINGLEVALUE('ClassificationBasis',$,IFCLABEL('authored'),$);
#1382=IFCPROPERTYSINGLEVALUE('EvidenceBasis',$,IFCLABEL('inferred'),$);
#1383=IFCPROPERTYSINGLEVALUE('Confidence',$,IFCLABEL('medium'),$);
#1384=IFCPROPERTYSINGLEVALUE('Source',$,IFCTEXT('Golden example; invented geometry'),$);
#1385=IFCFURNITURE('0Wefn874TN2hPUSACX7Vkj',$,'Saal table',$,$,#1404,#1399,$,$);
#1391=IFCRELDEFINESBYTYPE('2AowK$e$5GXep_kgy6CILN',$,$,$,(#1385),#352);
#1392=IFCCARTESIANPOINT((0.,0.,0.));
#1393=IFCDIRECTION((1.,0.,0.));
#1394=IFCDIRECTION((0.,1.,0.));
#1395=IFCDIRECTION((0.,0.,1.));
#1396=IFCCARTESIANTRANSFORMATIONOPERATOR3D(#1393,#1394,#1392,1.,#1395);
#1397=IFCMAPPEDITEM(#357,#1396);
#1398=IFCSHAPEREPRESENTATION(#12,'Body','MappedRepresentation',(#1397));
#1399=IFCPRODUCTDEFINITIONSHAPE($,$,(#1398));
#1400=IFCCARTESIANPOINT((7.7999999999999998,2.9500000000000002,0.));
#1401=IFCDIRECTION((0.,0.,1.));
#1402=IFCDIRECTION((1.,0.,0.));
#1403=IFCAXIS2PLACEMENT3D(#1400,#1401,#1402);
#1404=IFCLOCALPLACEMENT(#46,#1403);
#1405=IFCPROPERTYSET('31RnVc4NDMFeeBNemR2WdM',$,'ReconstructionEvidence',$,(#1407,#1408,#1409,#1410,#1411,#1412));
#1406=IFCRELDEFINESBYPROPERTIES('3oLwSGGBPJ8PueQVqdPidm',$,$,$,(#1385),#1405);
#1407=IFCPROPERTYSINGLEVALUE('ProductId',$,IFCIDENTIFIER('table-saal-1'),$);
#1408=IFCPROPERTYSINGLEVALUE('Category',$,IFCLABEL('table'),$);
#1409=IFCPROPERTYSINGLEVALUE('ClassificationBasis',$,IFCLABEL('authored'),$);
#1410=IFCPROPERTYSINGLEVALUE('EvidenceBasis',$,IFCLABEL('inferred'),$);
#1411=IFCPROPERTYSINGLEVALUE('Confidence',$,IFCLABEL('medium'),$);
#1412=IFCPROPERTYSINGLEVALUE('Source',$,IFCTEXT('Golden example panorama node 3 (invented)'),$);
#1413=IFCFURNITURE('0RszMhqtnR_RSpSXCRZext',$,'Saal chair 1',$,$,#1432,#1427,$,$);
#1419=IFCRELDEFINESBYTYPE('3$h5zjziTUQvMHe7nLfITs',$,$,$,(#1413,#1441,#1468,#1495),#300);
#1420=IFCCARTESIANPOINT((0.,0.,0.));
#1421=IFCDIRECTION((1.,0.,0.));
#1422=IFCDIRECTION((0.,1.,0.));
#1423=IFCDIRECTION((0.,0.,1.));
#1424=IFCCARTESIANTRANSFORMATIONOPERATOR3D(#1421,#1422,#1420,1.,#1423);
#1425=IFCMAPPEDITEM(#305,#1424);
#1426=IFCSHAPEREPRESENTATION(#12,'Body','MappedRepresentation',(#1425));
#1427=IFCPRODUCTDEFINITIONSHAPE($,$,(#1426));
#1428=IFCCARTESIANPOINT((7.4000000000000004,2.25,0.));
#1429=IFCDIRECTION((0.,0.,1.));
#1430=IFCDIRECTION((-1.,1.2246467991473532E-16,0.));
#1431=IFCAXIS2PLACEMENT3D(#1428,#1429,#1430);
#1432=IFCLOCALPLACEMENT(#46,#1431);
#1433=IFCPROPERTYSET('11w$cldajHYOM9xpGL5OUy',$,'ReconstructionEvidence',$,(#1435,#1436,#1437,#1438,#1439,#1440));
#1434=IFCRELDEFINESBYPROPERTIES('1tqbsrU9bNfhXZTmpqUaMu',$,$,$,(#1413),#1433);
#1435=IFCPROPERTYSINGLEVALUE('ProductId',$,IFCIDENTIFIER('chair-saal-1'),$);
#1436=IFCPROPERTYSINGLEVALUE('Category',$,IFCLABEL('chair'),$);
#1437=IFCPROPERTYSINGLEVALUE('ClassificationBasis',$,IFCLABEL('authored'),$);
#1438=IFCPROPERTYSINGLEVALUE('EvidenceBasis',$,IFCLABEL('inferred'),$);
#1439=IFCPROPERTYSINGLEVALUE('Confidence',$,IFCLABEL('medium'),$);
#1440=IFCPROPERTYSINGLEVALUE('Source',$,IFCTEXT('Golden example panorama node 3 (invented)'),$);
#1441=IFCFURNITURE('2bn_APMLPOYBVM0zDWCg2b',$,'Saal chair 2',$,$,#1459,#1454,$,$);
#1447=IFCCARTESIANPOINT((0.,0.,0.));
#1448=IFCDIRECTION((1.,0.,0.));
#1449=IFCDIRECTION((0.,1.,0.));
#1450=IFCDIRECTION((0.,0.,1.));
#1451=IFCCARTESIANTRANSFORMATIONOPERATOR3D(#1448,#1449,#1447,1.,#1450);
#1452=IFCMAPPEDITEM(#305,#1451);
#1453=IFCSHAPEREPRESENTATION(#12,'Body','MappedRepresentation',(#1452));
#1454=IFCPRODUCTDEFINITIONSHAPE($,$,(#1453));
#1455=IFCCARTESIANPOINT((8.1999999999999993,2.25,0.));
#1456=IFCDIRECTION((0.,0.,1.));
#1457=IFCDIRECTION((-1.,1.2246467991473532E-16,0.));
#1458=IFCAXIS2PLACEMENT3D(#1455,#1456,#1457);
#1459=IFCLOCALPLACEMENT(#46,#1458);
#1460=IFCPROPERTYSET('0QX7CGSNvUKwgRkv$FF$Qi',$,'ReconstructionEvidence',$,(#1462,#1463,#1464,#1465,#1466,#1467));
#1461=IFCRELDEFINESBYPROPERTIES('3C8cNrHZnIVe8HlOjPSFZN',$,$,$,(#1441),#1460);
#1462=IFCPROPERTYSINGLEVALUE('ProductId',$,IFCIDENTIFIER('chair-saal-2'),$);
#1463=IFCPROPERTYSINGLEVALUE('Category',$,IFCLABEL('chair'),$);
#1464=IFCPROPERTYSINGLEVALUE('ClassificationBasis',$,IFCLABEL('authored'),$);
#1465=IFCPROPERTYSINGLEVALUE('EvidenceBasis',$,IFCLABEL('inferred'),$);
#1466=IFCPROPERTYSINGLEVALUE('Confidence',$,IFCLABEL('medium'),$);
#1467=IFCPROPERTYSINGLEVALUE('Source',$,IFCTEXT('Golden example panorama node 3 (invented)'),$);
#1468=IFCFURNITURE('1C3zN$JJ9GqAoBcMNWC$bk',$,'Saal chair 3',$,$,#1486,#1481,$,$);
#1474=IFCCARTESIANPOINT((0.,0.,0.));
#1475=IFCDIRECTION((1.,0.,0.));
#1476=IFCDIRECTION((0.,1.,0.));
#1477=IFCDIRECTION((0.,0.,1.));
#1478=IFCCARTESIANTRANSFORMATIONOPERATOR3D(#1475,#1476,#1474,1.,#1477);
#1479=IFCMAPPEDITEM(#305,#1478);
#1480=IFCSHAPEREPRESENTATION(#12,'Body','MappedRepresentation',(#1479));
#1481=IFCPRODUCTDEFINITIONSHAPE($,$,(#1480));
#1482=IFCCARTESIANPOINT((7.4000000000000004,3.6499999999999999,0.));
#1483=IFCDIRECTION((0.,0.,1.));
#1484=IFCDIRECTION((1.,0.,0.));
#1485=IFCAXIS2PLACEMENT3D(#1482,#1483,#1484);
#1486=IFCLOCALPLACEMENT(#46,#1485);
#1487=IFCPROPERTYSET('31IyXHksfNy9N4q9KsosSw',$,'ReconstructionEvidence',$,(#1489,#1490,#1491,#1492,#1493,#1494));
#1488=IFCRELDEFINESBYPROPERTIES('1UzEfCGg1JCec2BsTDzx9T',$,$,$,(#1468),#1487);
#1489=IFCPROPERTYSINGLEVALUE('ProductId',$,IFCIDENTIFIER('chair-saal-3'),$);
#1490=IFCPROPERTYSINGLEVALUE('Category',$,IFCLABEL('chair'),$);
#1491=IFCPROPERTYSINGLEVALUE('ClassificationBasis',$,IFCLABEL('authored'),$);
#1492=IFCPROPERTYSINGLEVALUE('EvidenceBasis',$,IFCLABEL('inferred'),$);
#1493=IFCPROPERTYSINGLEVALUE('Confidence',$,IFCLABEL('medium'),$);
#1494=IFCPROPERTYSINGLEVALUE('Source',$,IFCTEXT('Golden example panorama node 3 (invented)'),$);
#1495=IFCFURNITURE('2sjcpWZ09VnRm$DGtn_mAk',$,'Saal chair 4',$,$,#1513,#1508,$,$);
#1501=IFCCARTESIANPOINT((0.,0.,0.));
#1502=IFCDIRECTION((1.,0.,0.));
#1503=IFCDIRECTION((0.,1.,0.));
#1504=IFCDIRECTION((0.,0.,1.));
#1505=IFCCARTESIANTRANSFORMATIONOPERATOR3D(#1502,#1503,#1501,1.,#1504);
#1506=IFCMAPPEDITEM(#305,#1505);
#1507=IFCSHAPEREPRESENTATION(#12,'Body','MappedRepresentation',(#1506));
#1508=IFCPRODUCTDEFINITIONSHAPE($,$,(#1507));
#1509=IFCCARTESIANPOINT((8.1999999999999993,3.6499999999999999,0.));
#1510=IFCDIRECTION((0.,0.,1.));
#1511=IFCDIRECTION((1.,0.,0.));
#1512=IFCAXIS2PLACEMENT3D(#1509,#1510,#1511);
#1513=IFCLOCALPLACEMENT(#46,#1512);
#1514=IFCPROPERTYSET('2PyudpFkHHTxRZTke1xHAx',$,'ReconstructionEvidence',$,(#1516,#1517,#1518,#1519,#1520,#1521));
#1515=IFCRELDEFINESBYPROPERTIES('1aKkPYGhvU3vXu6SctDZtp',$,$,$,(#1495),#1514);
#1516=IFCPROPERTYSINGLEVALUE('ProductId',$,IFCIDENTIFIER('chair-saal-4'),$);
#1517=IFCPROPERTYSINGLEVALUE('Category',$,IFCLABEL('chair'),$);
#1518=IFCPROPERTYSINGLEVALUE('ClassificationBasis',$,IFCLABEL('authored'),$);
#1519=IFCPROPERTYSINGLEVALUE('EvidenceBasis',$,IFCLABEL('inferred'),$);
#1520=IFCPROPERTYSINGLEVALUE('Confidence',$,IFCLABEL('medium'),$);
#1521=IFCPROPERTYSINGLEVALUE('Source',$,IFCTEXT('Golden example panorama node 3 (invented)'),$);
#1522=IFCSPACE('0dRhZRn29Uqw1fbHcEtYqC',$,'EG.01',$,$,#1544,#1538,'Halle',.ELEMENT.,.SPACE.,$);
#1528=IFCCARTESIANPOINTLIST2D(((0.40000000000000002,0.40000000000000002),(6.,0.40000000000000002),(6.,5.5999999999999996),(0.40000000000000002,5.5999999999999996)));
#1529=IFCINDEXEDPOLYCURVE(#1528,(IFCLINEINDEX((1,2,3,4,1))),$);
#1530=IFCARBITRARYCLOSEDPROFILEDEF(.AREA.,$,#1529);
#1531=IFCCARTESIANPOINT((0.,0.,0.));
#1532=IFCDIRECTION((0.,0.,1.));
#1533=IFCDIRECTION((1.,0.,0.));
#1534=IFCAXIS2PLACEMENT3D(#1531,#1532,#1533);
#1535=IFCDIRECTION((0.,0.,1.));
#1536=IFCEXTRUDEDAREASOLID(#1530,#1534,#1535,2.9500000000000002);
#1537=IFCSHAPEREPRESENTATION(#12,'Body','SweptSolid',(#1536));
#1538=IFCPRODUCTDEFINITIONSHAPE($,$,(#1537));
#1539=IFCRELAGGREGATES('13A3TsnIXQDhHa0nmLMIm4',$,$,$,#29,(#1522,#1561));
#1540=IFCCARTESIANPOINT((0.,0.,0.));
#1541=IFCDIRECTION((0.,0.,1.));
#1542=IFCDIRECTION((1.,0.,0.));
#1543=IFCAXIS2PLACEMENT3D(#1540,#1541,#1542);
#1544=IFCLOCALPLACEMENT(#46,#1543);
#1545=IFCELEMENTQUANTITY('0L45DFl01JXxbiLQDioT_H',$,'Qto_SpaceBaseQuantities',$,'BaseQuantities',(#1547,#1548));
#1546=IFCRELDEFINESBYPROPERTIES('3YisDycPPK6vwrxwYf20Bz',$,$,$,(#1522),#1545);
#1547=IFCQUANTITYAREA('NetFloorArea',$,$,29.120000000000001,$);
#1548=IFCQUANTITYLENGTH('Height',$,$,2.9500000000000002,$);
#1549=IFCPROPERTYSET('0Ti5_lo8zNl8R1QSGy2wx9',$,'Pset_SpaceCommon',$,(#1551,#1552));
#1550=IFCRELDEFINESBYPROPERTIES('1xD7$D_WnR3uybTRzQ7qdv',$,$,$,(#1522),#1549);
#1551=IFCPROPERTYSINGLEVALUE('Reference',$,IFCIDENTIFIER('EG.01'),$);
#1552=IFCPROPERTYSINGLEVALUE('IsExternal',$,IFCBOOLEAN(.F.),$);
#1553=IFCPROPERTYSET('3h4nGY3XjT9P85RZk8Rdyk',$,'ReconstructionEvidence',$,(#1555,#1556,#1557,#1558,#1559,#1560));
#1554=IFCRELDEFINESBYPROPERTIES('3M7dYP_0HGRh2ZywBm9Ab9',$,$,$,(#1522),#1553);
#1555=IFCPROPERTYSINGLEVALUE('ProductId',$,IFCIDENTIFIER('space-eg-01'),$);
#1556=IFCPROPERTYSINGLEVALUE('Category',$,IFCLABEL('space'),$);
#1557=IFCPROPERTYSINGLEVALUE('ClassificationBasis',$,IFCLABEL('authored'),$);
#1558=IFCPROPERTYSINGLEVALUE('EvidenceBasis',$,IFCLABEL('measured'),$);
#1559=IFCPROPERTYSINGLEVALUE('Confidence',$,IFCLABEL('medium'),$);
#1560=IFCPROPERTYSINGLEVALUE('Source',$,IFCTEXT('Room outline from plan (invented)'),$);
#1561=IFCSPACE('1ZZnI2KWvRi80wcN5w4Fjr',$,'EG.02',$,$,#1582,#1577,'Saal',.ELEMENT.,.SPACE.,$);
#1567=IFCCARTESIANPOINTLIST2D(((6.1500000000000004,0.40000000000000002),(9.5999999999999996,0.40000000000000002),(9.5999999999999996,5.5999999999999996),(6.1500000000000004,5.5999999999999996)));
#1568=IFCINDEXEDPOLYCURVE(#1567,(IFCLINEINDEX((1,2,3,4,1))),$);
#1569=IFCARBITRARYCLOSEDPROFILEDEF(.AREA.,$,#1568);
#1570=IFCCARTESIANPOINT((0.,0.,0.));
#1571=IFCDIRECTION((0.,0.,1.));
#1572=IFCDIRECTION((1.,0.,0.));
#1573=IFCAXIS2PLACEMENT3D(#1570,#1571,#1572);
#1574=IFCDIRECTION((0.,0.,1.));
#1575=IFCEXTRUDEDAREASOLID(#1569,#1573,#1574,2.9500000000000002);
#1576=IFCSHAPEREPRESENTATION(#12,'Body','SweptSolid',(#1575));
#1577=IFCPRODUCTDEFINITIONSHAPE($,$,(#1576));
#1578=IFCCARTESIANPOINT((0.,0.,0.));
#1579=IFCDIRECTION((0.,0.,1.));
#1580=IFCDIRECTION((1.,0.,0.));
#1581=IFCAXIS2PLACEMENT3D(#1578,#1579,#1580);
#1582=IFCLOCALPLACEMENT(#46,#1581);
#1583=IFCELEMENTQUANTITY('19u1UaqRfP$w9NFKXlGMAr',$,'Qto_SpaceBaseQuantities',$,'BaseQuantities',(#1585,#1586));
#1584=IFCRELDEFINESBYPROPERTIES('08zqEcpbTPYx2LJbvYL9xk',$,$,$,(#1561),#1583);
#1585=IFCQUANTITYAREA('NetFloorArea',$,$,17.940000000000001,$);
#1586=IFCQUANTITYLENGTH('Height',$,$,2.9500000000000002,$);
#1587=IFCPROPERTYSET('26nhUfbS9M_Ryh2DAbh193',$,'Pset_SpaceCommon',$,(#1589,#1590));
#1588=IFCRELDEFINESBYPROPERTIES('17ZRv5rv5IBRHC_IuYgP6D',$,$,$,(#1561),#1587);
#1589=IFCPROPERTYSINGLEVALUE('Reference',$,IFCIDENTIFIER('EG.02'),$);
#1590=IFCPROPERTYSINGLEVALUE('IsExternal',$,IFCBOOLEAN(.F.),$);
#1591=IFCPROPERTYSET('2XvC4PKonPahUzUOl2DGnI',$,'ReconstructionEvidence',$,(#1593,#1594,#1595,#1596,#1597,#1598));
#1592=IFCRELDEFINESBYPROPERTIES('0542jhI6vN78V0w0yMRP24',$,$,$,(#1561),#1591);
#1593=IFCPROPERTYSINGLEVALUE('ProductId',$,IFCIDENTIFIER('space-eg-02'),$);
#1594=IFCPROPERTYSINGLEVALUE('Category',$,IFCLABEL('space'),$);
#1595=IFCPROPERTYSINGLEVALUE('ClassificationBasis',$,IFCLABEL('authored'),$);
#1596=IFCPROPERTYSINGLEVALUE('EvidenceBasis',$,IFCLABEL('measured'),$);
#1597=IFCPROPERTYSINGLEVALUE('Confidence',$,IFCLABEL('medium'),$);
#1598=IFCPROPERTYSINGLEVALUE('Source',$,IFCTEXT('Room outline from plan (invented)'),$);
#1599=IFCSPACE('0us2UypLLVoxW6nZhEbcx9',$,'OG1.01',$,$,#1623,#1617,'Obergeschoss',.ELEMENT.,.SPACE.,$);
#1605=IFCCARTESIANPOINTLIST2D(((0.40000000000000002,0.40000000000000002),(9.5999999999999996,0.40000000000000002),(9.5999999999999996,5.5999999999999996),(0.40000000000000002,5.5999999999999996)));
#1606=IFCINDEXEDPOLYCURVE(#1605,(IFCLINEINDEX((1,2,3,4,1))),$);
#1607=IFCCARTESIANPOINTLIST2D(((0.5,4.5999999999999996),(5.5599999999999996,4.5999999999999996),(5.5599999999999996,5.5999999999999996),(0.5,5.5999999999999996)));
#1608=IFCINDEXEDPOLYCURVE(#1607,(IFCLINEINDEX((1,2,3,4,1))),$);
#1609=IFCARBITRARYPROFILEDEFWITHVOIDS(.AREA.,$,#1606,(#1608));
#1610=IFCCARTESIANPOINT((0.,0.,0.));
#1611=IFCDIRECTION((0.,0.,1.));
#1612=IFCDIRECTION((1.,0.,0.));
#1613=IFCAXIS2PLACEMENT3D(#1610,#1611,#1612);
#1614=IFCDIRECTION((0.,0.,1.));
#1615=IFCEXTRUDEDAREASOLID(#1609,#1613,#1614,2.9500000000000002);
#1616=IFCSHAPEREPRESENTATION(#12,'Body','SweptSolid',(#1615));
#1617=IFCPRODUCTDEFINITIONSHAPE($,$,(#1616));
#1618=IFCRELAGGREGATES('1uruUz$AHIIuO25HOebpgs',$,$,$,#35,(#1599));
#1619=IFCCARTESIANPOINT((0.,0.,0.));
#1620=IFCDIRECTION((0.,0.,1.));
#1621=IFCDIRECTION((1.,0.,0.));
#1622=IFCAXIS2PLACEMENT3D(#1619,#1620,#1621);
#1623=IFCLOCALPLACEMENT(#51,#1622);
#1624=IFCELEMENTQUANTITY('2WeAC8H9fM1uUN31j2_aIv',$,'Qto_SpaceBaseQuantities',$,'BaseQuantities',(#1626,#1627));
#1625=IFCRELDEFINESBYPROPERTIES('1Z2tMbIdPP2R8rsxmkXzEu',$,$,$,(#1599),#1624);
#1626=IFCQUANTITYAREA('NetFloorArea',$,$,42.780000000000001,$);
#1627=IFCQUANTITYLENGTH('Height',$,$,2.9500000000000002,$);
#1628=IFCPROPERTYSET('2qDM7CbgvRZxUNZI6Qh$ji',$,'Pset_SpaceCommon',$,(#1630,#1631));
#1629=IFCRELDEFINESBYPROPERTIES('1wsUom5gzOr9363S4VBIGF',$,$,$,(#1599),#1628);
#1630=IFCPROPERTYSINGLEVALUE('Reference',$,IFCIDENTIFIER('OG1.01'),$);
#1631=IFCPROPERTYSINGLEVALUE('IsExternal',$,IFCBOOLEAN(.F.),$);
#1632=IFCPROPERTYSET('3F42h6bVrUZgUwW8RaLmtm',$,'ReconstructionEvidence',$,(#1634,#1635,#1636,#1637,#1638,#1639));
#1633=IFCRELDEFINESBYPROPERTIES('0KBrfaqjXPshKHGckm3LA7',$,$,$,(#1599),#1632);
#1634=IFCPROPERTYSINGLEVALUE('ProductId',$,IFCIDENTIFIER('space-og-01'),$);
#1635=IFCPROPERTYSINGLEVALUE('Category',$,IFCLABEL('space'),$);
#1636=IFCPROPERTYSINGLEVALUE('ClassificationBasis',$,IFCLABEL('authored'),$);
#1637=IFCPROPERTYSINGLEVALUE('EvidenceBasis',$,IFCLABEL('measured'),$);
#1638=IFCPROPERTYSINGLEVALUE('Confidence',$,IFCLABEL('medium'),$);
#1639=IFCPROPERTYSINGLEVALUE('Source',$,IFCTEXT('Room outline from plan (invented)'),$);
ENDSEC;
END-ISO-10303-21;
